/* XPM */
static char * blue_ball_small_xpm[] = {
"16 16 157 2",
"  	c None",
". 	c #073ABA",
"+ 	c #073CC0",
"@ 	c #0639B4",
"# 	c #062E94",
"$ 	c #0945DA",
"% 	c #0A4DEE",
"& 	c #0A51F6",
"* 	c #094FF6",
"= 	c #084BED",
"- 	c #0842D4",
"; 	c #0637AE",
"> 	c #052A85",
", 	c #0A4DEC",
"' 	c #0E5CFF",
") 	c #0F62FF",
"! 	c #0D62FF",
"~ 	c #0C5EFF",
"{ 	c #0B59FF",
"] 	c #0A51FC",
"^ 	c #0847E3",
"/ 	c #073AB9",
"( 	c #052880",
"_ 	c #0A4CEA",
": 	c #0E60FF",
"< 	c #156EFF",
"[ 	c #1975FF",
"} 	c #1470FF",
"| 	c #0E68FF",
"1 	c #0C62FF",
"2 	c #0B5AFF",
"3 	c #0A50FB",
"4 	c #0845DA",
"5 	c #0636AC",
"6 	c #04226D",
"7 	c #0844D6",
"8 	c #0B58FF",
"9 	c #1069FF",
"0 	c #1C7AFF",
"a 	c #2A8BFF",
"b 	c #2384FF",
"c 	c #1271FF",
"d 	c #0C66FF",
"e 	c #0B5FFF",
"f 	c #0A56FF",
"g 	c #094AEC",
"h 	c #083CC2",
"i 	c #062C8D",
"j 	c #031D5C",
"k 	c #094BEC",
"l 	c #0F6AFF",
"m 	c #1A7BFF",
"n 	c #2F92FF",
"o 	c #3092FF",
"p 	c #1776FF",
"q 	c #0C68FF",
"r 	c #0C61FF",
"s 	c #0A58FF",
"t 	c #0A4DF4",
"u 	c #0840CC",
"v 	c #06319C",
"w 	c #031E5F",
"x 	c #0639B6",
"y 	c #094FF4",
"z 	c #0D69FF",
"A 	c #1172FF",
"B 	c #1C7EFF",
"C 	c #2081FF",
"D 	c #1372FF",
"E 	c #0C67FF",
"F 	c #0C60FF",
"G 	c #0840CE",
"H 	c #0632A0",
"I 	c #032066",
"J 	c #032068",
"K 	c #073BBC",
"L 	c #084DF3",
"M 	c #0B5CFF",
"N 	c #0D6BFF",
"O 	c #0F6EFF",
"P 	c #106EFF",
"Q 	c #0E69FF",
"R 	c #0C64FF",
"S 	c #0C5DFF",
"T 	c #0A55FF",
"U 	c #094BEE",
"V 	c #0740C9",
"W 	c #06319D",
"X 	c #042066",
"Y 	c #031E60",
"Z 	c #0637AF",
"` 	c #0849E8",
" .	c #0A57FF",
"..	c #0B60FF",
"+.	c #0C65FF",
"@.	c #0C5FFF",
"#.	c #0847E1",
"$.	c #063BBE",
"%.	c #052E92",
"&.	c #031D5D",
"*.	c #032067",
"=.	c #062E90",
"-.	c #0841CF",
";.	c #0A4FFA",
">.	c #0B5EFF",
",.	c #0A52FE",
"'.	c #084AED",
").	c #0741CF",
"!.	c #042982",
"~.	c #031B56",
"{.	c #04267A",
"].	c #0636AA",
"^.	c #0846DD",
"/.	c #0A4FF8",
"(.	c #0A54FF",
"_.	c #0950FB",
":.	c #084AEC",
"<.	c #0843D5",
"[.	c #063AB8",
"}.	c #052F95",
"|.	c #04226B",
"1.	c #052881",
"2.	c #0739B5",
"3.	c #0949E8",
"4.	c #0A4CF1",
"5.	c #094CF2",
"6.	c #0846E0",
"7.	c #0741CE",
"8.	c #063AB7",
"9.	c #05309B",
"0.	c #042678",
"a.	c #021A54",
"b.	c #042576",
"c.	c #05277C",
"d.	c #0635A8",
"e.	c #073CBE",
"f.	c #073FC8",
"g.	c #0840CB",
"h.	c #073EC6",
"i.	c #063BBC",
"j.	c #0636AB",
"k.	c #052E95",
"l.	c #031B57",
"m.	c #03216A",
"n.	c #042C8A",
"o.	c #063099",
"p.	c #06319E",
"q.	c #06319B",
"r.	c #052E91",
"s.	c #042881",
"t.	c #04226A",
"u.	c #031C5A",
"v.	c #032065",
"w.	c #042065",
"x.	c #031C5C",
"y.	c #032169",
"z.	c #042679",
"            . + @ #             ",
"        $ % & * = - ; >         ",
"      , ' ) ! ~ { ] ^ / (       ",
"    _ : < [ } | 1 2 3 4 5 6     ",
"  7 8 9 0 a b c d e f g h i j   ",
"  k ~ l m n o p q r s t u v w   ",
"x y ~ z A B C D E F s t G H I J ",
"K L M d N O P Q R S T U V W X Y ",
"Z `  ...+.E d R @.8 ] #.$.%.&.*.",
"=.-.;.8 >.F @.S 8 ,.'.).5 !.~.{.",
"  ].^./.(. .f (._.:.<.[.}.|.j   ",
"  1.2.<.3.4.5.:.6.7.8.9.0.a.b.  ",
"    c.d.e.f.g.h.i.j.k.0.l.I     ",
"      m.n.o.p.q.r.s.t.a.I       ",
"        u.&.v.w.j ~.x.y.        ",
"            I w I z.            "};
