/* XPM */
static char * blue_ball_xpm[] = {
"32 32 417 2",
"  	c None",
". 	c #05319D",
"+ 	c #0639B5",
"@ 	c #083CBF",
"# 	c #073DC1",
"$ 	c #073CC0",
"% 	c #073BB9",
"& 	c #0637AF",
"* 	c #06329F",
"= 	c #052B8A",
"- 	c #04216A",
"; 	c #073BBC",
"> 	c #0844D6",
", 	c #0948E5",
"' 	c #094BEC",
") 	c #094CF0",
"! 	c #094BEF",
"~ 	c #0849EB",
"{ 	c #0848E4",
"] 	c #0845DA",
"^ 	c #0740CD",
"/ 	c #073BBD",
"( 	c #0636A9",
"_ 	c #052E90",
": 	c #04236F",
"< 	c #0738B3",
"[ 	c #0946DE",
"} 	c #0A4EF5",
"| 	c #0B52FF",
"1 	c #0B55FF",
"2 	c #0A56FF",
"3 	c #0A55FF",
"4 	c #0A53FF",
"5 	c #0951FF",
"6 	c #094EF7",
"7 	c #094AEB",
"8 	c #0845DD",
"9 	c #0740CB",
"0 	c #0739B6",
"a 	c #06319F",
"b 	c #052980",
"c 	c #031A53",
"d 	c #0940CA",
"e 	c #0A4DF0",
"f 	c #0C55FF",
"g 	c #0D59FF",
"h 	c #0D5DFF",
"i 	c #0D5FFF",
"j 	c #0C5FFF",
"k 	c #0B5DFF",
"l 	c #0B5CFF",
"m 	c #0B5BFF",
"n 	c #0B58FF",
"o 	c #094CF3",
"p 	c #0847E3",
"q 	c #0841D0",
"r 	c #073BBB",
"s 	c #0633A2",
"t 	c #052984",
"u 	c #041C5C",
"v 	c #0842CF",
"w 	c #0A4FF7",
"x 	c #0C58FF",
"y 	c #0F5FFF",
"z 	c #0F63FF",
"A 	c #1166FF",
"B 	c #1067FF",
"C 	c #0F66FF",
"D 	c #0D64FF",
"E 	c #0C62FF",
"F 	c #0C60FF",
"G 	c #0C5EFF",
"H 	c #0A5AFF",
"I 	c #0A52FF",
"J 	c #094DF5",
"K 	c #0848E3",
"L 	c #073AB8",
"M 	c #052880",
"N 	c #031B57",
"O 	c #083FC8",
"P 	c #0A4EF6",
"Q 	c #0F60FF",
"R 	c #1268FF",
"S 	c #146DFF",
"T 	c #1570FF",
"U 	c #136EFF",
"V 	c #106AFF",
"W 	c #0E68FF",
"X 	c #0C65FF",
"Y 	c #0B5FFF",
"Z 	c #0A51FF",
"` 	c #094DF2",
" .	c #0846DF",
"..	c #083FC9",
"+.	c #0738B2",
"@.	c #063096",
"#.	c #052576",
"$.	c #03184D",
"%.	c #0737B1",
"&.	c #094BED",
"*.	c #0B56FF",
"=.	c #1167FF",
"-.	c #156EFF",
";.	c #1A75FF",
">.	c #1D7AFF",
",.	c #1977FF",
"'.	c #1472FF",
").	c #106CFF",
"!.	c #0D65FF",
"~.	c #0B62FF",
"{.	c #0B5EFF",
"].	c #0B5AFF",
"^.	c #0A4FFD",
"/.	c #094AEA",
"(.	c #0635A6",
"_.	c #042066",
":.	c #042064",
"<.	c #0C5CFF",
"[.	c #0F64FF",
"}.	c #126BFF",
"|.	c #1874FF",
"1.	c #1E7DFF",
"2.	c #2484FF",
"3.	c #2687FF",
"4.	c #2283FF",
"5.	c #1A7BFF",
"6.	c #1372FF",
"7.	c #0E6CFF",
"8.	c #0D67FF",
"9.	c #0C64FF",
"0.	c #0B60FF",
"a.	c #0A58FF",
"b.	c #0947DF",
"c.	c #0737B2",
"d.	c #062F97",
"e.	c #052678",
"f.	c #021950",
"g.	c #063AB8",
"h.	c #094CF1",
"i.	c #0E66FF",
"j.	c #126EFF",
"k.	c #1876FF",
"l.	c #2182FF",
"m.	c #2C8DFF",
"n.	c #3193FF",
"o.	c #2E90FF",
"p.	c #2384FF",
"q.	c #1877FF",
"r.	c #106FFF",
"s.	c #0D69FF",
"t.	c #0C66FF",
"u.	c #0B59FF",
"v.	c #0A54FF",
"w.	c #0A4EFA",
"x.	c #0842D1",
"y.	c #073ABA",
"z.	c #0633A1",
"A.	c #052A84",
"B.	c #031E61",
"C.	c #031F63",
"D.	c #0743D2",
"E.	c #0A50FD",
"F.	c #0C61FF",
"G.	c #116EFF",
"H.	c #1776FF",
"I.	c #2183FF",
"J.	c #2D8FFF",
"K.	c #3699FF",
"L.	c #3597FF",
"M.	c #2A8CFF",
"N.	c #1C7BFF",
"O.	c #1270FF",
"P.	c #0D6AFF",
"Q.	c #0C63FF",
"R.	c #0A50FC",
"S.	c #0735A7",
"T.	c #052C8C",
"U.	c #03226C",
"V.	c #02194F",
"W.	c #053099",
"X.	c #0947E0",
"Y.	c #0F6DFF",
"Z.	c #1374FF",
"`.	c #1C7EFF",
" +	c #278AFF",
".+	c #3295FF",
"++	c #3496FF",
"@+	c #2B8DFF",
"#+	c #1C7DFF",
"$+	c #1271FF",
"%+	c #0C67FF",
"&+	c #0A50FE",
"*+	c #0844D9",
"=+	c #083DC2",
"-+	c #0635AB",
";+	c #052D91",
">+	c #042473",
",+	c #02184E",
"'+	c #04277E",
")+	c #0638B1",
"!+	c #0849E7",
"~+	c #1071FF",
"{+	c #1677FF",
"]+	c #1D7FFF",
"^+	c #2588FF",
"/+	c #298AFF",
"(+	c #2385FF",
"_+	c #1979FF",
":+	c #116FFF",
"<+	c #094AEC",
"[+	c #0944D9",
"}+	c #073DC3",
"|+	c #0636AC",
"1+	c #052E94",
"2+	c #042576",
"3+	c #021B54",
"4+	c #03216C",
"5+	c #084AEB",
"6+	c #0954FF",
"7+	c #0D66FF",
"8+	c #0E6EFF",
"9+	c #1171FF",
"0+	c #1475FF",
"a+	c #187AFF",
"b+	c #1A7CFF",
"c+	c #1879FF",
"d+	c #0C68FF",
"e+	c #0944D8",
"f+	c #0636AD",
"g+	c #052F94",
"h+	c #042678",
"i+	c #031C57",
"j+	c #031F64",
"k+	c #0849E9",
"l+	c #0953FF",
"m+	c #0D68FF",
"n+	c #0D6BFF",
"o+	c #0E6DFF",
"p+	c #0F6FFF",
"q+	c #1170FF",
"r+	c #0F6CFF",
"s+	c #0E6AFF",
"t+	c #0A4EF9",
"u+	c #0949E8",
"v+	c #0743D5",
"w+	c #0636AB",
"x+	c #052E92",
"y+	c #042577",
"z+	c #031C58",
"A+	c #0848E5",
"B+	c #0A59FF",
"C+	c #0B63FF",
"D+	c #0C69FF",
"E+	c #0C6AFF",
"F+	c #0E6BFF",
"G+	c #0B57FF",
"H+	c #0A4DF4",
"I+	c #0742D1",
"J+	c #073CBD",
"K+	c #0634A7",
"L+	c #052D8F",
"M+	c #042475",
"N+	c #031A55",
"O+	c #031E60",
"P+	c #0739B4",
"Q+	c #0846DE",
"R+	c #094FFB",
"S+	c #084BEE",
"T+	c #0846DD",
"U+	c #0639B7",
"V+	c #021951",
"W+	c #0635AA",
"X+	c #0843D4",
"Y+	c #0844D5",
"Z+	c #073DC4",
"`+	c #0637B0",
" @	c #05319B",
".@	c #042984",
"+@	c #032169",
"@@	c #02174B",
"#@	c #03216A",
"$@	c #06319A",
"%@	c #073EC7",
"&@	c #0C5DFF",
"*@	c #094EF9",
"=@	c #0845DC",
"-@	c #0740CC",
";@	c #0635A7",
">@	c #04277B",
",@	c #02174C",
"'@	c #052A86",
")@	c #0843D7",
"!@	c #094AED",
"~@	c #0A50FF",
"{@	c #0952FE",
"]@	c #094FFA",
"^@	c #0846E1",
"/@	c #0742D2",
"(@	c #073DC2",
"_@	c #0638B0",
":@	c #05329E",
"<@	c #052B89",
"[@	c #042471",
"}@	c #031B56",
"|@	c #042981",
"1@	c #042067",
"2@	c #0634A4",
"3@	c #073EC5",
"4@	c #094CEF",
"5@	c #0951FE",
"6@	c #0847E2",
"7@	c #0843D5",
"8@	c #073EC6",
"9@	c #063AB6",
"0@	c #0634A5",
"a@	c #052E93",
"b@	c #04287D",
"c@	c #032066",
"d@	c #031F62",
"e@	c #032067",
"f@	c #0738B1",
"g@	c #0840CB",
"h@	c #0A4EF7",
"i@	c #094DF3",
"j@	c #084AEA",
"k@	c #073FC7",
"l@	c #053098",
"m@	c #052A85",
"n@	c #042370",
"o@	c #031C59",
"p@	c #04226C",
"q@	c #06309A",
"r@	c #083FCB",
"s@	c #0844DA",
"t@	c #0A4DF5",
"u@	c #0A4EF8",
"v@	c #0A4FFB",
"w@	c #0A4FFA",
"x@	c #094DF7",
"y@	c #094CF2",
"z@	c #084BEC",
"A@	c #0847E4",
"B@	c #0845DB",
"C@	c #073BB8",
"D@	c #05309B",
"E@	c #042676",
"F@	c #031F61",
"G@	c #021749",
"H@	c #052B8B",
"I@	c #05277C",
"J@	c #06329E",
"K@	c #083DC5",
"L@	c #0945DB",
"M@	c #0947E1",
"N@	c #0949E7",
"O@	c #094AE9",
"P@	c #0849E8",
"Q@	c #0847E1",
"R@	c #063AB5",
"S@	c #0635A9",
"T@	c #04267A",
"U@	c #031B55",
"V@	c #031951",
"W@	c #06319B",
"X@	c #0737AE",
"Y@	c #083EC5",
"Z@	c #0841CD",
"`@	c #0843D6",
" #	c #0741CE",
".#	c #073FC9",
"+#	c #073BBA",
"@#	c #0638AF",
"##	c #0633A4",
"$#	c #052F98",
"%#	c #032168",
"&#	c #031A54",
"*#	c #04216B",
"=#	c #042677",
"-#	c #041C59",
";#	c #05277D",
">#	c #062F93",
",#	c #0533A2",
"'#	c #0636AE",
")#	c #0639B6",
"!#	c #073CBF",
"~#	c #073DC0",
"{#	c #073CC1",
"]#	c #073CBE",
"^#	c #052D92",
"/#	c #052985",
"(#	c #02184C",
"_#	c #021A54",
":#	c #042A86",
"<#	c #05329D",
"[#	c #0634A8",
"}#	c #0633A0",
"|#	c #053199",
"1#	c #052A88",
"2#	c #04277C",
"3#	c #042575",
"4#	c #052C8F",
"5#	c #052D90",
"6#	c #052D8D",
"7#	c #042982",
"8#	c #04277A",
"9#	c #042470",
"0#	c #031E5F",
"a#	c #042371",
"b#	c #042474",
"c#	c #04236E",
"d#	c #02194E",
"e#	c #021A53",
"f#	c #02174A",
"g#	c #031E62",
"h#	c #042472",
"i#	c #032069",
"j#	c #042980",
"                                                                ",
"                      . + @ # $ % & * = -                       ",
"                  ; > , ' ) ! ~ { ] ^ / ( _ :                   ",
"              < [ } | 1 2 2 3 4 5 6 7 8 9 0 a b c               ",
"            d e f g h i j k l m n 3 5 o p q r s t u             ",
"          v w x y z A B C D E F G H 2 I J K q L * M N           ",
"        O P x Q R S T T U V W X E Y m 2 Z `  ...+.@.#.$.        ",
"      %.&.*.i =.-.;.>.>.,.'.).W !.~.{.].3 ^./.> $ (.= _.:.      ",
"      ] I <.[.}.|.1.2.3.4.5.6.7.8.9.0.l a.I o b...c.d.e.f.      ",
"    g.h.*.G i.j.k.l.m.n.o.p.q.r.s.t.E k u.v.w., x.y.z.A.B.C.    ",
"    D.E.].F.8.G.H.I.J.K.L.M.N.O.P.t.Q.Y ].3 R./.> @ S.T.U.V.    ",
"  W.X.4 l E W Y.Z.`. +.+++@+#+$+P.%+Q.{.m 2 &+' *+=+-+;+>+,+'+  ",
"  )+!+v.l E 8.7.~+{+]+^+/+(+_+:+P.t.E Y ].3 &+<+[+}+|+1+2+3+4+  ",
"  y.5+6+m F.7+P.8+9+0+a+b+c+6.Y.d+X E k ].3 ^.7 e+}+f+g+h+i+j+  ",
"  ; k+l+H F !.m+n+o+p+9+9+q+r+s+%+9.F k n v.t+u+v+# w+x+y+z+B.  ",
"  r A+5 B+{.C+t.D+E+F+7.7.F+s.t.9.F.G ].G+I H+p I+J+K+L+M+N+O+  ",
"  P+Q+R+2 l 0.Q.t.%+d+D+d+d+t.9.E j l u.v.E.S+T+9 U+z.= : V+j+  ",
"  W+X+h.4 a.k 0.Q.X X t.X 9.Q.F.G l n 1 I J A+Y+Z+`+ @.@+@@@#@  ",
"  $@%@, R+v.u.l Y F.F.E E F.F &@l n *.4 *@5+=@-@r ;@x+>@B.,@>+  ",
"  '@L )@!@~@v.n ].l {.k {.l l ].n 1 {@]@S+^@/@(@_@:@<@[@N }@|@  ",
"  1@2@3@T+4@E.4 2 n u.u.u.u.G+*.v.5@*@S+6@7@8@9@0@a@b@c@@@d@e@  ",
"    T.f@g@Q+&.h@Z I v.3 v.v.4 5@R+i@j@^@7@k@% ( l@m@n@o@f.>+    ",
"    p@q@0 r@s@, ! t@u@v@v@w@x@y@z@A@B@/@8@C@-+D@= E@F@G@O+H@    ",
"      I@J@P+K@x.L@M@N@O@k+P@A+Q@B@X+9 # R@S@D@H@T@e@V+U@2+      ",
"      V@M W@X@; Y@Z@/@v+`@7@/@ #.#(@+#@###$#= T@%#&#V.*#=#      ",
"        -#;#>#,#'#)#; !#~#{#]#r + & (.. ^#/#2+c@&#(#c@=#        ",
"          _#>+:#1+<#2@[#W+W+S@0@}#|#;+1#2#: F@f.V.c@=#          ",
"            ,@j+3#|@<@4#;+x+5#6#<@7#8#9#c@z+G@U@*#=#            ",
"              F@V.0##@a#b#2+2+>+c#%#O+}@@@V.O+2+y+              ",
"                  B.d#(#e#}@}@&#f.f#@@U@g#h#c@                  ",
"                      2##@d@0#0#d@i#h#j#c@                      ",
"                                                                "};
