/* XPM */
static char * green_ball_xpm[] = {
"32 32 395 2",
"  	c None",
". 	c #049D14",
"+ 	c #06B517",
"@ 	c #08BF1B",
"# 	c #07C019",
"$ 	c #07BF19",
"% 	c #06B818",
"& 	c #05AF16",
"* 	c #059F15",
"= 	c #058912",
"- 	c #036A0E",
"; 	c #07BC19",
"> 	c #08D61C",
", 	c #08E51F",
"' 	c #09EC1F",
") 	c #08EF1F",
"! 	c #09EF20",
"~ 	c #08EA1F",
"{ 	c #07E41D",
"] 	c #07D91C",
"^ 	c #07CD1A",
"/ 	c #07BD19",
"( 	c #05A815",
"_ 	c #048F12",
": 	c #036F0E",
"< 	c #07B218",
"[ 	c #09DE1E",
"} 	c #0AF521",
"| 	c #0AFF22",
"1 	c #0AFF20",
"2 	c #09FF1D",
"3 	c #09FF1E",
"4 	c #09FF20",
"5 	c #08FF20",
"6 	c #09F720",
"7 	c #09EA1F",
"8 	c #07DD1D",
"9 	c #06CA1A",
"0 	c #06B619",
"a 	c #059F16",
"b 	c #047F10",
"c 	c #03530B",
"d 	c #09C91D",
"e 	c #0CFF21",
"f 	c #0DFF1F",
"g 	c #0DFF1B",
"h 	c #0DFF19",
"i 	c #0CFF18",
"j 	c #0AFF18",
"k 	c #0AFF19",
"l 	c #0AFF1A",
"m 	c #0AFF1D",
"n 	c #09F220",
"o 	c #08E21E",
"p 	c #07CF1C",
"q 	c #07BA19",
"r 	c #06A115",
"s 	c #048412",
"t 	c #035B0E",
"u 	c #07CF1B",
"v 	c #0AF721",
"w 	c #0CFF1E",
"x 	c #0FFF1C",
"y 	c #0FFF19",
"z 	c #10FF19",
"A 	c #0FFF16",
"B 	c #0DFF14",
"C 	c #0CFF15",
"D 	c #0CFF17",
"E 	c #0CFF19",
"F 	c #09FF19",
"G 	c #09FF21",
"H 	c #08F520",
"I 	c #08E21D",
"J 	c #06B718",
"K 	c #047F11",
"L 	c #02570B",
"M 	c #08C71B",
"N 	c #09F621",
"O 	c #0FFF1B",
"P 	c #11FF19",
"Q 	c #14FF17",
"R 	c #15FF16",
"S 	c #12FF14",
"T 	c #0FFF13",
"U 	c #0EFF12",
"V 	c #0CFF12",
"W 	c #0AFF16",
"X 	c #09FF22",
"Y 	c #08F11F",
"Z 	c #07DF1D",
"` 	c #08C81C",
" .	c #06B118",
"..	c #069614",
"+.	c #047610",
"@.	c #034C0A",
"#.	c #06B019",
"$.	c #08ED1F",
"%.	c #0AFF1F",
"&.	c #10FF18",
"*.	c #15FF18",
"=.	c #1AFF19",
"-.	c #20FF1D",
";.	c #1CFF18",
">.	c #15FF14",
",.	c #0FFF12",
"'.	c #0DFF13",
").	c #0AFF13",
"!.	c #0AFF17",
"~.	c #0AFF1B",
"{.	c #09FD23",
"].	c #08E91F",
"^.	c #06A615",
"/.	c #03660E",
"(.	c #04630D",
"_.	c #0CFF1A",
":.	c #0FFF18",
"<.	c #11FF16",
"[.	c #18FF17",
"}.	c #24FF1E",
"|.	c #2DFF24",
"1.	c #30FF26",
"2.	c #2BFF21",
"3.	c #20FF19",
"4.	c #14FF12",
"5.	c #0EFF0E",
"6.	c #0DFF12",
"7.	c #0CFF13",
"8.	c #0AFF15",
"9.	c #09FF1B",
"0.	c #09DF1E",
"a.	c #06B119",
"b.	c #059715",
"c.	c #047710",
"d.	c #024F09",
"e.	c #06B717",
"f.	c #08F020",
"g.	c #0EFF14",
"h.	c #11FF13",
"i.	c #1AFF17",
"j.	c #2AFF20",
"k.	c #39FF2C",
"l.	c #41FF30",
"m.	c #3CFF2E",
"n.	c #2CFF22",
"o.	c #1BFF17",
"p.	c #10FF0F",
"q.	c #0DFF10",
"r.	c #0CFF11",
"s.	c #0AFF1C",
"t.	c #09FF1F",
"u.	c #0AF923",
"v.	c #07D01C",
"w.	c #06B919",
"x.	c #05A015",
"y.	c #048411",
"z.	c #02600C",
"A.	c #02630C",
"B.	c #06D11A",
"C.	c #09FD22",
"D.	c #0CFF16",
"E.	c #10FF11",
"F.	c #2BFF20",
"G.	c #3BFF2D",
"H.	c #48FF36",
"I.	c #46FF35",
"J.	c #37FF29",
"K.	c #21FF1C",
"L.	c #12FF11",
"M.	c #0DFF0F",
"N.	c #0CFF14",
"O.	c #09FC22",
"P.	c #06A717",
"Q.	c #048C12",
"R.	c #036B0C",
"S.	c #024F08",
"T.	c #049813",
"U.	c #08DF1E",
"V.	c #0FFF0F",
"W.	c #16FF12",
"X.	c #24FF1C",
"Y.	c #34FF27",
"Z.	c #43FF31",
"`.	c #45FF34",
" +	c #38FF2A",
".+	c #23FF1C",
"++	c #13FF11",
"@+	c #0CFF10",
"#+	c #0AFE22",
"$+	c #07D81D",
"%+	c #07C11B",
"&+	c #05AA17",
"*+	c #049013",
"=+	c #04730F",
"-+	c #024E09",
";+	c #037E10",
">+	c #06B016",
",+	c #08E71D",
"'+	c #12FF0F",
")+	c #1AFF16",
"!+	c #25FF1D",
"~+	c #31FF25",
"{+	c #35FF28",
"]+	c #2DFF22",
"^+	c #1EFF18",
"/+	c #11FF10",
"(+	c #09EC20",
"_+	c #09D81E",
":+	c #06C21A",
"<+	c #05AC16",
"[+	c #049413",
"}+	c #04760F",
"|+	c #025308",
"1+	c #036B0D",
"2+	c #08EA1E",
"3+	c #08FF1D",
"4+	c #13FF10",
"5+	c #18FF14",
"6+	c #1EFF17",
"7+	c #21FF19",
"8+	c #1DFF17",
"9+	c #0CFF0F",
"0+	c #08D71E",
"a+	c #05AD16",
"b+	c #049412",
"c+	c #03770F",
"d+	c #02570A",
"e+	c #03630C",
"f+	c #08E81E",
"g+	c #08FF1E",
"h+	c #0DFF11",
"i+	c #0DFF0E",
"j+	c #12FF10",
"k+	c #0FFF10",
"l+	c #0EFF10",
"m+	c #0AF822",
"n+	c #09E71F",
"o+	c #07D51B",
"p+	c #05AA16",
"q+	c #059112",
"r+	c #07E51D",
"s+	c #09FF1A",
"t+	c #0AFF12",
"u+	c #0CFF0E",
"v+	c #0CFF0D",
"w+	c #0EFF0F",
"x+	c #0AFF1E",
"y+	c #0AF421",
"z+	c #06D01A",
"A+	c #07BD18",
"B+	c #05A716",
"C+	c #058F12",
"D+	c #03740F",
"E+	c #02540B",
"F+	c #025F0C",
"G+	c #06B418",
"H+	c #07DE1D",
"I+	c #08FA21",
"J+	c #07EE1E",
"K+	c #07DD1C",
"L+	c #015009",
"M+	c #05A916",
"N+	c #07D41C",
"O+	c #06C41A",
"P+	c #05AF17",
"Q+	c #049A13",
"R+	c #038410",
"S+	c #03680C",
"T+	c #014B09",
"U+	c #026A0D",
"V+	c #069914",
"W+	c #07C71A",
"X+	c #09F821",
"Y+	c #08DC1D",
"Z+	c #06CC1A",
"`+	c #05A715",
" @	c #037B0F",
".@	c #048612",
"+@	c #07D71D",
"@@	c #08ED20",
"#@	c #09FF23",
"$@	c #09FE1F",
"%@	c #09F920",
"&@	c #08E01E",
"*@	c #06C119",
"=@	c #049E13",
"-@	c #048812",
";@	c #04700E",
">@	c #02560B",
",@	c #04800F",
"'@	c #03670E",
")@	c #06A415",
"!@	c #06C519",
"~@	c #09EF1F",
"{@	c #09FE20",
"]@	c #08E11D",
"^@	c #07D51C",
"/@	c #07C61A",
"(@	c #05B616",
"_@	c #06A515",
":@	c #059213",
"<@	c #047C0F",
"[@	c #03660C",
"}@	c #03620B",
"|@	c #02670C",
"1@	c #06B018",
"2@	c #07CA1B",
"3@	c #0AF722",
"4@	c #07E91D",
"5@	c #07C719",
"6@	c #059713",
"7@	c #058511",
"8@	c #02580B",
"9@	c #046B0E",
"0@	c #069915",
"a@	c #07CA1C",
"b@	c #07D91D",
"c@	c #0AF522",
"d@	c #09F722",
"e@	c #09FA22",
"f@	c #0AF922",
"g@	c #09F721",
"h@	c #08F120",
"i@	c #08EC1D",
"j@	c #07E41E",
"k@	c #07DA1D",
"l@	c #049A14",
"m@	c #04760E",
"n@	c #02600B",
"o@	c #014808",
"p@	c #048A13",
"q@	c #047B11",
"r@	c #059E15",
"s@	c #08C51C",
"t@	c #09DA1E",
"u@	c #09E01E",
"v@	c #08E81F",
"w@	c #07E71E",
"x@	c #08E01D",
"y@	c #06B516",
"z@	c #05A816",
"A@	c #047A0F",
"B@	c #02540A",
"C@	c #03500B",
"D@	c #059A14",
"E@	c #07AE17",
"F@	c #08C51B",
"G@	c #08CD1B",
"H@	c #08D61D",
"I@	c #06CE1A",
"J@	c #06C81A",
"K@	c #06B918",
"L@	c #05AF15",
"M@	c #06A416",
"N@	c #059714",
"O@	c #03670C",
"P@	c #02530B",
"Q@	c #046B0F",
"R@	c #03770E",
"S@	c #03580D",
"T@	c #057C11",
"U@	c #069213",
"V@	c #05A114",
"W@	c #05AE17",
"X@	c #05B617",
"Y@	c #06BF19",
"Z@	c #07BF18",
"`@	c #07C01A",
" #	c #07BE19",
".#	c #059113",
"+#	c #058512",
"@#	c #014B08",
"##	c #025309",
"$#	c #038610",
"%#	c #049D13",
"&#	c #059F14",
"*#	c #049812",
"=#	c #048712",
"-#	c #03740E",
";#	c #058F13",
">#	c #048F13",
",#	c #058D11",
"'#	c #038110",
")#	c #047A0E",
"!#	c #025F0B",
"~#	c #04700F",
"{#	c #03730F",
"]#	c #046E0E",
"^#	c #024E08",
"/#	c #015309",
"(#	c #014A09",
"_#	c #03620C",
":#	c #03720E",
"<#	c #03680D",
"[#	c #037F0F",
"                                                                ",
"                      . + @ # $ % & * = -                       ",
"                  ; > , ' ) ! ~ { ] ^ / ( _ :                   ",
"              < [ } | 1 2 2 3 4 5 6 7 8 9 0 a b c               ",
"            d ! e f g h i j k l m 3 5 n o p q r s t             ",
"          u v w x y z A A B C D E F 2 G H I p J * K L           ",
"        M N w O P Q R R S T U V C W l 2 X Y Z `  ...+.@.        ",
"      #.$.%.h &.*.=.-.-.;.>.,.U '.).!.~.3 {.].> $ ^.= /.(.      ",
"      ] G _.:.<.[.}.|.1.2.3.4.5.6.7.8.k 9.G n 0.` a.b.c.d.      ",
"    e.f.%.E g.h.i.j.k.l.m.n.o.p.q.r.C j s.t.u., v.w.x.y.z.A.    ",
"    B.C.~.D.6.E.i.F.G.H.I.J.K.L.M.r.N.W ~.3 O.].> @ P.Q.R.S.    ",
"  T.U.4 k C U V.W.X.Y.Z.`. +.+++M.@+N.!.l 2 #+' $+%+&+*+=+-+;+  ",
"  >+,+t.k C 6.5.'+)+!+~+{+]+^+/+M.r.C W ~.3 #+(+_+:+<+[+}+|+1+  ",
"  w.2+3+l D.'.M.5.4+5+6+7+8+4.V.9+V C j ~.3 {.7 0+:+a+b+c+d+e+  ",
"  ; f+g+F D '.h+i+5.p.4+4+j+k+l+@+7.D j m t.m+n+o+# p+q+c+L z.  ",
"  q r+5 s+!.t+r.u+v+w+5.5.w+q.r.7.D.E ~.x+G y+o z+A+B+C+D+E+F+  ",
"  G+H+I+2 k 8.N.r.@+9+u+9+9+r.7.C i k s.t.C.J+K+9 e.x.= : L+e+  ",
"  M+N+f.4 9.j 8.N.V V r.V 7.N.D.E k m 1 G H r+o+O+P+Q+R+S+T+U+  ",
"  V+W+, I+t.s.k W D.D.C C D.D _.k m %.4 X+2+Y+Z+q `+q+ @z.T+=+  ",
"  .@J +@@@#@t.m ~.k !.j !.k k ~.m 1 $@%@J+&@B.*@& =@-@;@L >@,@  ",
"  '@)@!@K+~@C.4 2 m s.s.s.s.x+%.t.{@X+J+]@^@/@(@_@:@<@[@T+}@|@  ",
"    Q.1@2@H+$.3@X G t.3 t.t.4 {@I+n 4@&@^@5@% ( 6@7@: 8@d.=+    ",
"    9@0@0 a@b@, ! c@d@e@e@f@g@h@i@j@k@B./@e.&+l@= m@n@o@F+p@    ",
"      q@r@G+s@v.t@u@n+v@f+w@r+x@k@N+9 # y@z@l@p@A@|@L+B@}+      ",
"      C@K D@E@; F@G@B.o+H@^@B.I@J@*@K@L@M@N@= A@O@P@S.Q@R@      ",
"        S@T@U@V@W@X@; Y@Z@`@ #q + & ^.. .#+#}+[@P@@#[@R@        ",
"          ##=+$#[+%#)@B+M+M+z@_@&#*#*+=# @: n@d.S.[@R@          ",
"            T+e+-#,@-@;#*+q+>#,#-@'#)#: [@L o@B@Q@R@            ",
"              n@S.!#U+~#{#}+}+=+]#O@F+>@T+S.F+}+c+              ",
"                  z.^#@#/#>@>@P@d.(#T+B@_#:#[@                  ",
"                       @U+}@!#!#}@<#:#[#[@                      ",
"                                                                "};
