/* XPM */
static char * purple_ball_xpm[] = {
"32 32 361 2",
"  	c None",
". 	c #63049D",
"+ 	c #7206B5",
"@ 	c #7808BF",
"# 	c #7A07C0",
"$ 	c #7907BF",
"% 	c #7506B8",
"& 	c #6E05AF",
"* 	c #64059F",
"= 	c #570589",
"- 	c #42036A",
"; 	c #7707BC",
"> 	c #8808D6",
", 	c #9108E5",
"' 	c #9609EC",
") 	c #9808EF",
"! 	c #9709EF",
"~ 	c #9408EA",
"{ 	c #9007E4",
"] 	c #8A08D9",
"^ 	c #8107CD",
"/ 	c #7707BD",
"( 	c #6B05A8",
"_ 	c #5B048F",
": 	c #46036F",
"< 	c #7107B2",
"[ 	c #8C09DE",
"} 	c #9B0AF5",
"| 	c #A20AFF",
"1 	c #A40AFF",
"2 	c #A509FF",
"3 	c #A409FF",
"4 	c #A309FF",
"5 	c #A208FF",
"6 	c #9C09F7",
"7 	c #9409EA",
"8 	c #8B07DD",
"9 	c #8006CA",
"0 	c #7306B6",
"a 	c #51047F",
"b 	c #340353",
"c 	c #8009C9",
"d 	c #9909EF",
"e 	c #A40CFF",
"f 	c #A70DFF",
"g 	c #A90DFF",
"h 	c #AB0DFF",
"i 	c #AB0CFF",
"j 	c #A90AFF",
"k 	c #A80AFF",
"l 	c #A60AFF",
"m 	c #9909F2",
"n 	c #8F08E2",
"o 	c #8307CF",
"p 	c #7607BA",
"q 	c #6606A1",
"r 	c #530484",
"s 	c #39035B",
"t 	c #9D0AF7",
"u 	c #A60CFF",
"v 	c #AA0FFF",
"w 	c #AD0FFF",
"x 	c #AF10FF",
"y 	c #B00FFF",
"z 	c #AF0FFF",
"A 	c #AE0DFF",
"B 	c #AD0CFF",
"C 	c #AA0CFF",
"D 	c #A809FF",
"E 	c #A209FF",
"F 	c #9B08F5",
"G 	c #9008E2",
"H 	c #7406B7",
"I 	c #50047F",
"J 	c #360257",
"K 	c #7E08C7",
"L 	c #9C09F6",
"M 	c #AB0FFF",
"N 	c #B011FF",
"O 	c #B314FF",
"P 	c #B515FF",
"Q 	c #B412FF",
"R 	c #B20FFF",
"S 	c #B00EFF",
"T 	c #AF0CFF",
"U 	c #AB0AFF",
"V 	c #9908F1",
"W 	c #8D07DF",
"X 	c #7F08C8",
"Y 	c #7006B1",
"Z 	c #5F0696",
"` 	c #4A0576",
" .	c #30034C",
"..	c #6F06B0",
"+.	c #9608ED",
"@.	c #A50AFF",
"#.	c #B010FF",
"$.	c #B415FF",
"%.	c #B819FF",
"&.	c #BB1DFF",
"*.	c #B918FF",
"=.	c #B714FF",
"-.	c #B30FFF",
";.	c #AF0DFF",
">.	c #AD0AFF",
",.	c #AA0AFF",
"'.	c #A70AFF",
").	c #9F09FD",
"!.	c #9408E9",
"~.	c #6906A6",
"{.	c #400366",
"].	c #3F0463",
"^.	c #A90CFF",
"/.	c #AE0FFF",
"(.	c #B211FF",
"_.	c #B817FF",
":.	c #BD1EFF",
"<.	c #C124FF",
"[.	c #C326FF",
"}.	c #C121FF",
"|.	c #BC19FF",
"1.	c #B712FF",
"2.	c #B30EFF",
"3.	c #B00DFF",
"4.	c #AE0CFF",
"5.	c #A609FF",
"6.	c #8D09DF",
"7.	c #5F0597",
"8.	c #4C0477",
"9.	c #32024F",
"0.	c #9808F0",
"a.	c #AF0EFF",
"b.	c #B411FF",
"c.	c #B917FF",
"d.	c #C020FF",
"e.	c #C62CFF",
"f.	c #CA30FF",
"g.	c #C82EFF",
"h.	c #C122FF",
"i.	c #BA17FF",
"j.	c #B50FFF",
"k.	c #B10DFF",
"l.	c #9D0AF9",
"m.	c #8407D0",
"n.	c #7506B9",
"o.	c #6605A0",
"p.	c #3D0260",
"q.	c #3E0263",
"r.	c #8506D1",
"s.	c #A009FD",
"t.	c #AC0CFF",
"u.	c #B410FF",
"v.	c #C120FF",
"w.	c #C82DFF",
"x.	c #CD36FF",
"y.	c #CC35FF",
"z.	c #C629FF",
"A.	c #BC1CFF",
"B.	c #B511FF",
"C.	c #B20DFF",
"D.	c #A009FC",
"E.	c #6A06A7",
"F.	c #58048C",
"G.	c #44036B",
"H.	c #600498",
"I.	c #8E08DF",
"J.	c #B40FFF",
"K.	c #B812FF",
"L.	c #BE1CFF",
"M.	c #C527FF",
"N.	c #CB31FF",
"O.	c #CC34FF",
"P.	c #C62AFF",
"Q.	c #BD1CFF",
"R.	c #B611FF",
"S.	c #B00CFF",
"T.	c #A10AFE",
"U.	c #8907D8",
"V.	c #7A07C1",
"W.	c #6B05AA",
"X.	c #5B0490",
"Y.	c #480473",
"Z.	c #31024E",
"`.	c #4F037E",
" +	c #7006B0",
".+	c #9208E7",
"++	c #B60FFF",
"@+	c #BA16FF",
"#+	c #BE1DFF",
"$+	c #C425FF",
"%+	c #C528FF",
"&+	c #C222FF",
"*+	c #BB18FF",
"=+	c #B510FF",
"-+	c #9509EC",
";+	c #8909D8",
">+	c #7B06C2",
",+	c #6C05AC",
"'+	c #5D0494",
")+	c #4A0476",
"!+	c #350253",
"~+	c #43036B",
"{+	c #9508EA",
"]+	c #A408FF",
"^+	c #B40EFF",
"/+	c #B610FF",
"(+	c #B914FF",
"_+	c #BC17FF",
":+	c #BD19FF",
"<+	c #BB17FF",
"[+	c #B10CFF",
"}+	c #8808D7",
"|+	c #6D05AD",
"1+	c #5E0494",
"2+	c #4C0377",
"3+	c #370257",
"4+	c #3F0363",
"5+	c #9308E8",
"6+	c #A308FF",
"7+	c #B30DFF",
"8+	c #B20EFF",
"9+	c #9D0AF8",
"0+	c #9309E7",
"a+	c #8707D5",
"b+	c #6C05AA",
"c+	c #5C0591",
"d+	c #4B0377",
"e+	c #380257",
"f+	c #9107E5",
"g+	c #A709FF",
"h+	c #B20CFF",
"i+	c #9A0AF4",
"j+	c #8406D0",
"k+	c #7807BD",
"l+	c #6905A7",
"m+	c #5A058F",
"n+	c #490374",
"o+	c #350254",
"p+	c #3C025F",
"q+	c #7206B4",
"r+	c #8C07DE",
"s+	c #9F08FA",
"t+	c #9707EE",
"u+	c #8C07DD",
"v+	c #7306B7",
"w+	c #330150",
"x+	c #6B05A9",
"y+	c #8607D4",
"z+	c #7B06C4",
"A+	c #6F05AF",
"B+	c #62049A",
"C+	c #530384",
"D+	c #420368",
"E+	c #2F014B",
"F+	c #43026A",
"G+	c #610699",
"H+	c #7D07C7",
"I+	c #9D09F8",
"J+	c #8B08DC",
"K+	c #8106CC",
"L+	c #6A05A7",
"M+	c #4E037B",
"N+	c #540486",
"O+	c #8707D7",
"P+	c #9508ED",
"Q+	c #A109FF",
"R+	c #A209FE",
"S+	c #9E09F9",
"T+	c #8E08E0",
"U+	c #7A06C1",
"V+	c #7005AF",
"W+	c #64049E",
"X+	c #560488",
"Y+	c #470470",
"Z+	c #360256",
"`+	c #520480",
" @	c #410367",
".@	c #6806A4",
"+@	c #7C06C5",
"@@	c #9809EF",
"#@	c #A109FE",
"$@	c #8F08E1",
"%@	c #8607D5",
"&@	c #7D07C6",
"*@	c #7305B6",
"=@	c #6806A5",
"-@	c #5D0592",
";@	c #4F047C",
">@	c #3E0362",
",@	c #410267",
"'@	c #8007CA",
")@	c #9C0AF7",
"!@	c #9A09F2",
"~@	c #9407E9",
"{@	c #7E07C7",
"]@	c #600597",
"^@	c #540585",
"/@	c #380258",
"(@	c #44046B",
"_@	c #8908D9",
":@	c #9D09F7",
"<@	c #9F09FA",
"[@	c #9E0AF9",
"}@	c #9608EC",
"|@	c #8A07DA",
"1@	c #7506B7",
"2@	c #61049A",
"3@	c #4B0476",
"4@	c #2E0148",
"5@	c #57048A",
"6@	c #4E047B",
"7@	c #64059E",
"8@	c #7C08C5",
"9@	c #8A09DA",
"0@	c #8E09E0",
"a@	c #9209E7",
"b@	c #9409E8",
"c@	c #9307E7",
"d@	c #7306B5",
"e@	c #4D047A",
"f@	c #360254",
"g@	c #330350",
"h@	c #62059A",
"i@	c #6E07AE",
"j@	c #8208CD",
"k@	c #8708D6",
"l@	c #8206CE",
"m@	c #7F06C8",
"n@	c #7606B9",
"o@	c #6706A4",
"p@	c #420367",
"q@	c #340253",
"r@	c #43046B",
"s@	c #380358",
"t@	c #4E057C",
"u@	c #5D0692",
"v@	c #6605A1",
"w@	c #6D05AE",
"x@	c #7906BF",
"y@	c #7A07BF",
"z@	c #7907C0",
"A@	c #7807BE",
"B@	c #5B0591",
"C@	c #530585",
"D@	c #30014B",
"E@	c #540386",
"F@	c #65059F",
"G@	c #610498",
"H@	c #550487",
"I@	c #4A0374",
"J@	c #59058D",
"K@	c #520381",
"L@	c #47036F",
"M@	c #490373",
"N@	c #45046E",
"O@	c #340153",
"P@	c #2E014A",
"Q@	c #3D0362",
"R@	c #480372",
"S@	c #410368",
"T@	c #51037F",
"                                                                ",
"                      . + @ # $ % & * = -                       ",
"                  ; > , ' ) ! ~ { ] ^ / ( _ :                   ",
"              < [ } | 1 2 2 3 4 5 6 7 8 9 0 * a b               ",
"            c d e f g h i j j k l 3 5 m n o p q r s             ",
"          o t u v w x y z A B i C D 2 E F G o H * I J           ",
"        K L u M N O P P Q R S T B U k 2 E V W X Y Z `  .        ",
"      ..+.@.h #.$.%.&.&.*.=.-.S ;.>.,.'.3 ).!.> $ ~.= {.].      ",
"      ] E ^./.(._.:.<.[.}.|.1.2.3.4.U j 5.E m 6.X Y 7.8.9.      ",
"    H 0.@.C a.b.c.d.e.f.g.h.i.j.k.T B j '.3 l., m.n.o.r p.q.    ",
"    r.s.'.t.3.u.c.v.w.x.y.z.A.B.C.T B U '.3 D.!.> @ E.F.G.9.    ",
"  H.I.4 j B S J.K.L.M.N.O.P.Q.R.C.S.B ,.k 2 T.' U.V.W.X.Y.Z.`.  ",
"   +.+3 j B 3.2.++@+#+$+%+&+*+=+C.T B U '.3 T.-+;+>+,+'+)+!+~+  ",
"  n.{+]+k t.;.C.^+/+(+_+:+<+1.J.[+T B j '.3 ).7 }+>+|+1+2+3+4+  ",
"  ; 5+6+D i ;.k.7+^+j./+/+/+-.8+S.4.i j l 3 9+0+a+# b+c+d+e+p.  ",
"  p f+5 g+,.>.T [+h+8+2.2.8+k.T 4.t.C '.@.E i+n j+k+l+m+n+o+p+  ",
"  q+r+s+2 j U B T S.[+[+[+[+T 4.B i j '.3 s.t+u+9 v+o.= : w+4+  ",
"  x+y+0.4 5.j U B T T T T 4.B t.C j l 1 E F f+a+z+A+B+C+D+E+F+  ",
"  G+H+, s+3 '.j U t.t.B B t.i ^.j l @.4 I+{+J+K+p L+c+M+p.E+Y.  ",
"  N+H O+P+Q+3 l '.j ,.j ,.j j '.l 1 R+S+t+T+r.U+V+W+X+Y+J Z+`+  ",
"   @.@+@u+@@s.4 2 l '.'.'.'.@.@.3 #@I+t+$@%@&@*@=@-@;@{.E+>@,@  ",
"    F. +'@r++.)@E E 3 3 3 3 4 #@s+!@~@T+%@{@% ( ]@^@: /@9.Y.    ",
"    (@G+0 '@_@, ! } :@<@<@[@6 V }@{ |@r.&@1@W.2@= 3@p.4@p+5@    ",
"      6@7@q+8@m.9@0@a@b@5+c@f+T+|@y+9 # d@( 2@5@e@,@w+f@)+      ",
"      g@I h@i@; 8@j@r.a+k@%@r.l@m@U+n@A+o@7.= e@p@q@9.r@d+      ",
"        s@t@u@v@w@*@; x@y@z@A@p + & ~.. B@C@)+{.q@D@{.d+        ",
"          !+Y.E@'+. .@l+x+x+( =@F@G@X.H@M+: p.9.9.{.d+          ",
"            E+4+I@`+X+m+X.c+_ J@X+K@e@L@{.e+4@f@r@d+            ",
"              p.9.p+F+Y+M@)+)+Y.N@p@p+Z+E+9.p+)+d+              ",
"                  p.Z.D@O@Z+Z+q@9.P@E+f@Q@R@{.                  ",
"                      M+F+>@p+p+>@S@R@T@{.                      ",
"                                                                "};
