/* XPM */
static char * red_ball_xpm[] = {
"32 32 242 2",
"  	c None",
". 	c #9D0604",
"+ 	c #B50706",
"@ 	c #BF0908",
"# 	c #C00807",
"$ 	c #BF0807",
"% 	c #B80806",
"& 	c #AF0705",
"* 	c #9F0705",
"= 	c #890605",
"- 	c #6A0503",
"; 	c #BC0807",
"> 	c #D60A08",
", 	c #E50B08",
"' 	c #EC0B09",
") 	c #EF0B08",
"! 	c #EF0B09",
"~ 	c #EA0A08",
"{ 	c #E40A07",
"] 	c #D90A08",
"^ 	c #CD0907",
"/ 	c #BD0807",
"( 	c #A80705",
"_ 	c #8F0604",
": 	c #6F0503",
"< 	c #B20807",
"[ 	c #DE0B09",
"} 	c #F50C0A",
"| 	c #FF0D0A",
"1 	c #FF0C09",
"2 	c #FF0B08",
"3 	c #F70B09",
"4 	c #EA0B09",
"5 	c #DD0A07",
"6 	c #CA0806",
"7 	c #B60806",
"8 	c #7F0604",
"9 	c #530303",
"0 	c #C90A09",
"a 	c #EF0C09",
"b 	c #FF0E0C",
"c 	c #FF0F0D",
"d 	c #F20B09",
"e 	c #E20A08",
"f 	c #CF0A07",
"g 	c #BA0807",
"h 	c #A10706",
"i 	c #840604",
"j 	c #5B0403",
"k 	c #F70C0A",
"l 	c #FF110F",
"m 	c #FF1310",
"n 	c #FF120F",
"o 	c #F50B08",
"p 	c #B70806",
"q 	c #570302",
"r 	c #C70908",
"s 	c #F60C09",
"t 	c #FF1411",
"u 	c #FF1614",
"v 	c #FF1715",
"w 	c #FF1512",
"x 	c #FF100E",
"y 	c #F10B08",
"z 	c #DF0A07",
"A 	c #C80908",
"B 	c #B10806",
"C 	c #960706",
"D 	c #760605",
"E 	c #4C0303",
"F 	c #B00806",
"G 	c #ED0B08",
"H 	c #FF1C19",
"I 	c #FF1F1D",
"J 	c #FF1B18",
"K 	c #FD0C09",
"L 	c #E90B08",
"M 	c #A60706",
"N 	c #660403",
"O 	c #630404",
"P 	c #FF1A17",
"Q 	c #FF201E",
"R 	c #FF2624",
"S 	c #FF2826",
"T 	c #FF2421",
"U 	c #DF0B09",
"V 	c #970705",
"W 	c #770604",
"X 	c #4F0202",
"Y 	c #B70706",
"Z 	c #F00B08",
"` 	c #FF2320",
" .	c #FF2E2C",
"..	c #FF3230",
"+.	c #FF302E",
"@.	c #FF2522",
"#.	c #F90C0A",
"$.	c #D00A07",
"%.	c #B90806",
"&.	c #A00705",
"*.	c #600302",
"=.	c #630302",
"-.	c #D10906",
";.	c #FF1917",
">.	c #FF2F2D",
",.	c #FF3736",
"'.	c #FF3635",
").	c #FF2C29",
"!.	c #FF1E1C",
"~.	c #FC0C09",
"{.	c #A70806",
"].	c #8C0604",
"^.	c #6B0403",
"/.	c #980604",
"(.	c #DF0B08",
"_.	c #FF2927",
":.	c #FF3331",
"<.	c #FF3534",
"[.	c #FF2D2A",
"}.	c #FE0C0A",
"|.	c #D80A07",
"1.	c #C10907",
"2.	c #AA0705",
"3.	c #900604",
"4.	c #730504",
"5.	c #4E0202",
"6.	c #7E0503",
"7.	c #B00706",
"8.	c #E70A08",
"9.	c #FF1816",
"0.	c #FF2725",
"a.	c #FF2B28",
"b.	c #D80B09",
"c.	c #C20806",
"d.	c #AC0705",
"e.	c #940604",
"f.	c #760504",
"g.	c #530202",
"h.	c #D70B08",
"i.	c #AD0705",
"j.	c #770503",
"k.	c #630303",
"l.	c #E80A08",
"m.	c #F80C0A",
"n.	c #E70B09",
"o.	c #D50907",
"p.	c #910605",
"q.	c #E50A07",
"r.	c #F40C0A",
"s.	c #D00906",
"t.	c #A70705",
"u.	c #8F0605",
"v.	c #740503",
"w.	c #540302",
"x.	c #5F0302",
"y.	c #B40806",
"z.	c #DE0A07",
"A.	c #FA0B08",
"B.	c #EE0A07",
"C.	c #500201",
"D.	c #A90705",
"E.	c #D40A07",
"F.	c #D50A07",
"G.	c #C40806",
"H.	c #9A0604",
"I.	c #840503",
"J.	c #680403",
"K.	c #4B0201",
"L.	c #6A0402",
"M.	c #990706",
"N.	c #C70807",
"O.	c #F80B09",
"P.	c #DC0A08",
"Q.	c #CC0906",
"R.	c #7B0503",
"S.	c #860604",
"T.	c #D70A07",
"U.	c #FE0B09",
"V.	c #F90B09",
"W.	c #E00A08",
"X.	c #C10806",
"Y.	c #9E0604",
"Z.	c #880604",
"`.	c #700504",
" +	c #560302",
".+	c #800504",
"++	c #670503",
"@+	c #A40706",
"#+	c #C50806",
"$+	c #E10A08",
"%+	c #C60807",
"&+	c #B60705",
"*+	c #A50706",
"=+	c #920605",
"-+	c #7C0504",
";+	c #620303",
">+	c #670402",
",+	c #CA0907",
"'+	c #E90A07",
")+	c #970605",
"!+	c #850605",
"~+	c #580302",
"{+	c #6B0504",
"]+	c #F70C09",
"^+	c #FA0C09",
"/+	c #EC0A08",
"(+	c #DA0A07",
"_+	c #480201",
":+	c #8A0604",
"<+	c #7B0604",
"[+	c #9E0705",
"}+	c #C50908",
"|+	c #DA0B09",
"1+	c #E00B09",
"2+	c #E80B09",
"3+	c #E70A07",
"4+	c #7A0504",
"5+	c #500303",
"6+	c #9A0705",
"7+	c #AE0807",
"8+	c #CD0A08",
"9+	c #CE0906",
"0+	c #C80806",
"a+	c #670403",
"b+	c #530302",
"c+	c #580403",
"d+	c #7C0605",
"e+	c #920706",
"f+	c #A10605",
"g+	c #AE0705",
"h+	c #BF0806",
"i+	c #BE0807",
"j+	c #860503",
"k+	c #870604",
"l+	c #8D0605",
"m+	c #810503",
"n+	c #730503",
"o+	c #6E0504",
"p+	c #530201",
"q+	c #4A0201",
"r+	c #720503",
"s+	c #7F0503",
"                                                                ",
"                      . + @ # $ % & * = -                       ",
"                  ; > , ' ) ! ~ { ] ^ / ( _ :                   ",
"              < [ } | | 1 1 1 1 2 3 4 5 6 7 * 8 9               ",
"            0 a b c c c b | | | | 1 2 d e f g h i j             ",
"          f k b l l m n l c b b b 1 1 1 o e f p * 8 q           ",
"        r s b l t u v v w n x b b | | 1 1 y z A B C D E         ",
"      F G | c m v H I I J u n x c | | | 1 K L > $ M = N O       ",
"      ] 1 b l t P Q R S T H w x c b | | 1 1 d U A B V W X       ",
"    Y Z | b x t P `  ...+.@.P n c b b | | 1 #., $.%.&.i *.=.    ",
"    -.K | b c m ;.` >.,.'.).!.t c b b | | 1 ~.L > @ {.].^.X     ",
"  /.(.1 | b x l w !._.:.<.[.!.t c b b | | 1 }.' |.1.2.3.4.5.6.  ",
"  7.8.1 | b c x n 9.I 0.a.@.J m c b b | | 1 }.' b.c.d.e.f.g.^.  ",
"  %.~ 2 | b c c x m u P H P w l b b b | | 1 K 4 h.c.i.e.j.q k.  ",
"  ; l.2 1 b c c c x l m m m l x b b b | | 1 m.n.o.# 2.p.j.q *.  ",
"  g q.2 1 | | b b b x x x x c b b b b | | 1 r.e s./ t.u.v.w.x.  ",
"  y.z.A.1 | | b b b b b b b b b b b | | 1 K B.5 6 Y &.= : C.k.  ",
"  D.E.Z 1 1 | | b b b b b b b b b | | | 1 o q.F.G.& H.I.J.K.L.  ",
"  M.N., A.1 | | | b b b b b b b | | | 1 O.~ P.Q.g t.p.R.*.K.4.  ",
"  S.p T.G 1 1 | | | | | | | | | | | U.V.B.W.-.X.& Y.Z.`.q  +.+  ",
"  ++@+#+5 ! K 1 1 | | | | | | | 1 U.O.B.$+F.%+&+*+=+-+N K.;+>+  ",
"    ].F ,+z.G k 1 1 1 1 1 1 1 U.A.d '+W.F.N.% ( )+!+: ~+X 4.    ",
"    {+M.7 ,+] , ! } ]+^+^+#.3 y /+{ (+-.%+p 2.H.= f.*._+x.:+    ",
"      <+[+y.}+$.|+1+n.2+l.3+q.W.(+E.6 # + ( H.:+4+>+C.w.f.      ",
"      5+8 6+7+; }+8+-.o.> F.-.9+0+X.%.& @+)+= 4+a+b+X {+j.      ",
"        c+d+e+f+g+&+; h+$ # i+g + & M . p.!+f.N b+K.N j.        ",
"          g.4.j+e.. @+t.D.D.( *+* /.3.k+R.: *.X X N j.          ",
"            K.k.v..+Z.u.3.p._ l+Z.m+4+: N q _+w.{+j.            ",
"              *.X x.L.`.n+f.f.4.o+a+x. +K.X x.f.j.              ",
"                  *.5.K.p+ + +b+X q+K.w.;+r+N                   ",
"                      R.L.;+x.x.;+J.r+s+N                       ",
"                                                                "};
