/* XPM */
static char * yellow_ball_xpm[] = {
"32 32 250 2",
"  	c None",
". 	c #9D9B04",
"+ 	c #B5B306",
"@ 	c #BFBD08",
"# 	c #C0BF07",
"$ 	c #BFBE07",
"% 	c #B8B706",
"& 	c #AFAD05",
"* 	c #9F9D05",
"= 	c #898905",
"- 	c #6A6903",
"; 	c #BCBA07",
"> 	c #D6D408",
", 	c #E5E308",
"' 	c #ECEA09",
") 	c #EFEE08",
"! 	c #EFED09",
"~ 	c #EAE908",
"{ 	c #E4E207",
"] 	c #D9D808",
"^ 	c #CDCB07",
"/ 	c #BDBB07",
"( 	c #A8A705",
"_ 	c #8F8E04",
": 	c #6F6E03",
"< 	c #B2B107",
"[ 	c #DEDC09",
"} 	c #F5F30A",
"| 	c #FFFD0A",
"1 	c #FFFD09",
"2 	c #FFFD08",
"3 	c #F7F509",
"4 	c #EAE909",
"5 	c #DDDB07",
"6 	c #CAC906",
"7 	c #B6B406",
"8 	c #7F7F04",
"9 	c #535203",
"0 	c #C9C809",
"a 	c #EFEE09",
"b 	c #FFFD0C",
"c 	c #FFFD0D",
"d 	c #F2F109",
"e 	c #E2E108",
"f 	c #CFCE07",
"g 	c #BAB907",
"h 	c #A1A006",
"i 	c #848304",
"j 	c #5B5B03",
"k 	c #CFCD07",
"l 	c #F7F50A",
"m 	c #FFFD0F",
"n 	c #FFFD10",
"o 	c #F5F308",
"p 	c #B7B606",
"q 	c #575602",
"r 	c #C7C608",
"s 	c #F6F409",
"t 	c #FFFD11",
"u 	c #FFFD14",
"v 	c #FFFD15",
"w 	c #FFFD12",
"x 	c #FFFD0E",
"y 	c #F1F008",
"z 	c #DFDD07",
"A 	c #C8C708",
"B 	c #B1B006",
"C 	c #969406",
"D 	c #767505",
"E 	c #4C4C03",
"F 	c #B0AF06",
"G 	c #EDEB08",
"H 	c #FFFD19",
"I 	c #FFFD1D",
"J 	c #FFFD18",
"K 	c #FDFB09",
"L 	c #E9E808",
"M 	c #A6A406",
"N 	c #666503",
"O 	c #636304",
"P 	c #FFFD17",
"Q 	c #FFFD1E",
"R 	c #FFFD24",
"S 	c #FFFD26",
"T 	c #FFFD21",
"U 	c #DFDD09",
"V 	c #979505",
"W 	c #777704",
"X 	c #4F4F02",
"Y 	c #F0EF08",
"Z 	c #FFFD20",
"` 	c #FFFD2C",
" .	c #FFFD30",
"..	c #FFFD2E",
"+.	c #FFFD22",
"@.	c #F9F80A",
"#.	c #D0CF07",
"$.	c #B9B806",
"%.	c #A09F05",
"&.	c #606002",
"*.	c #636202",
"=.	c #D1D006",
"-.	c #FFFD2D",
";.	c #FFFD36",
">.	c #FFFD35",
",.	c #FFFD29",
"'.	c #FFFD1C",
").	c #FCFA09",
"!.	c #A7A506",
"~.	c #8C8A04",
"{.	c #6B6B03",
"].	c #4F4E02",
"^.	c #989704",
"/.	c #DFDE08",
"(.	c #FFFD27",
"_.	c #FFFD31",
":.	c #FFFD34",
"<.	c #FFFD2A",
"[.	c #FEFC0A",
"}.	c #D8D707",
"|.	c #C1C007",
"1.	c #AAA905",
"2.	c #908F04",
"3.	c #737204",
"4.	c #4E4D02",
"5.	c #7E7D03",
"6.	c #E7E508",
"7.	c #FFFD16",
"8.	c #FFFD25",
"9.	c #FFFD28",
"0.	c #D8D709",
"a.	c #C2C106",
"b.	c #ACAA05",
"c.	c #949204",
"d.	c #767504",
"e.	c #535302",
"f.	c #D7D608",
"g.	c #ADAB05",
"h.	c #777703",
"i.	c #636303",
"j.	c #E8E708",
"k.	c #F8F70A",
"l.	c #E7E609",
"m.	c #D5D307",
"n.	c #919005",
"o.	c #777603",
"p.	c #575702",
"q.	c #E5E307",
"r.	c #F4F20A",
"s.	c #D0CF06",
"t.	c #A7A505",
"u.	c #8F8D05",
"v.	c #747403",
"w.	c #545402",
"x.	c #5F5F02",
"y.	c #B4B206",
"z.	c #DEDC07",
"A.	c #FAF908",
"B.	c #EEEC07",
"C.	c #B7B506",
"D.	c #505001",
"E.	c #A9A805",
"F.	c #D4D207",
"G.	c #C4C206",
"H.	c #AFAE05",
"I.	c #9A9904",
"J.	c #848303",
"K.	c #686803",
"L.	c #4B4A01",
"M.	c #6A6902",
"N.	c #999806",
"O.	c #C7C507",
"P.	c #F8F709",
"Q.	c #DCDA08",
"R.	c #CCCA06",
"S.	c #7B7A03",
"T.	c #4B4B01",
"U.	c #868504",
"V.	c #D7D507",
"W.	c #FEFC09",
"X.	c #F9F809",
"Y.	c #E0DF08",
"Z.	c #C1C006",
"`.	c #9E9C04",
" +	c #888804",
".+	c #707004",
"++	c #565502",
"@+	c #808004",
"#+	c #676603",
"$+	c #A4A206",
"%+	c #C5C306",
"&+	c #E1E008",
"*+	c #C6C407",
"=+	c #B6B405",
"-+	c #A5A306",
";+	c #929105",
">+	c #7C7C04",
",+	c #626103",
"'+	c #676602",
")+	c #CAC907",
"!+	c #E9E807",
"~+	c #979605",
"{+	c #858405",
"]+	c #6F6F03",
"^+	c #585802",
"/+	c #6B6B04",
"(+	c #F7F609",
"_+	c #FAF909",
":+	c #ECEA08",
"<+	c #DAD907",
"[+	c #484801",
"}+	c #8A8A04",
"|+	c #7B7B04",
"1+	c #9E9C05",
"2+	c #C5C308",
"3+	c #DAD909",
"4+	c #E0DF09",
"5+	c #E7E509",
"6+	c #E8E709",
"7+	c #E7E607",
"8+	c #7A7904",
"9+	c #505003",
"0+	c #9A9905",
"a+	c #AEAC07",
"b+	c #CDCB08",
"c+	c #CECC06",
"d+	c #C8C706",
"e+	c #676703",
"f+	c #6B6A04",
"g+	c #585803",
"h+	c #7C7C05",
"i+	c #929106",
"j+	c #A1A005",
"k+	c #AEAC05",
"l+	c #BFBD06",
"m+	c #BEBC07",
"n+	c #868503",
"o+	c #A7A605",
"p+	c #9F9E05",
"q+	c #878704",
"r+	c #7B7B03",
"s+	c #8D8B05",
"t+	c #818103",
"u+	c #5F5E02",
"v+	c #737303",
"w+	c #6E6D04",
"x+	c #535201",
"y+	c #4A4901",
"z+	c #727103",
"A+	c #7F7F03",
"                                                                ",
"                      . + @ # $ % & * = -                       ",
"                  ; > , ' ) ! ~ { ] ^ / ( _ :                   ",
"              < [ } | | 1 1 1 1 2 3 4 5 6 7 * 8 9               ",
"            0 a b c c c b | | | | 1 2 d e f g h i j             ",
"          k l b m m n m m c b b b 1 1 1 o e f p * 8 q           ",
"        r s b m t u v v w m x b b | | 1 1 y z A B C D E         ",
"      F G | c n v H I I J u m x c | | | 1 K L > $ M = N O       ",
"      ] 1 b m t P Q R S T H w x c b | | 1 1 d U A B V W X       ",
"    p Y | b x t P Z `  ...+.P m c b b | | 1 @., #.$.%.i &.*.    ",
"    =.K | b c n P Z -.;.>.,.'.t c b b | | 1 ).L > @ !.~.{.].    ",
"  ^./.1 | b x m w '.(._.:.<.'.t c b b | | 1 [.' }.|.1.2.3.4.5.  ",
"  F 6.1 | b c x m 7.I 8.9.+.J n c b b | | 1 [.' 0.a.b.c.d.e.{.  ",
"  $.~ 2 | b c c x n u P H P w m b b b | | 1 K 4 f.a.g.c.h.q i.  ",
"  ; j.2 1 b c c c x m n n n m x b b b | | 1 k.l.m.# 1.n.o.p.&.  ",
"  g q.2 1 | | b b b x x x x c b b b b | | 1 r.e s./ t.u.v.w.x.  ",
"  y.z.A.1 | | b b b b b b b b b b b | | 1 K B.5 6 C.%.= : D.i.  ",
"  E.F.Y 1 1 | | b b b b b b b b b | | | 1 o q.m.G.H.I.J.K.L.M.  ",
"  N.O., A.1 | | | b b b b b b b | | | 1 P.~ Q.R.g t.n.S.&.T.3.  ",
"  U.p V.G 1 1 | | | | | | | | | | | W.X.B.Y.=.Z.H.`. +.+q ++@+  ",
"  #+$+%+5 ! K 1 1 | | | | | | | 1 W.P.B.&+m.*+=+-+;+>+N L.,+'+  ",
"    ~.F )+z.G l 1 1 1 1 1 1 1 W.A.d !+Y.m.O.% ( ~+{+]+^+X 3.    ",
"    /+N.7 )+] , ! } (+_+_+@.3 y :+{ <+=.*+p 1.I.= d.&.[+x.}+    ",
"      |+1+y.2+#.3+4+5+6+j.7+q.Y.<+F.6 # + ( I.}+8+'+D.w.d.      ",
"      9+8 0+a+; 2+b+=.m.> m.=.c+d+Z.$.& $+~+= 8+e+e.].f+o.      ",
"        g+h+i+j+k+=+; l+$ # m+g + & M . n.{+d.N e.T.N o.        ",
"          e.3.n+c.. $+o+E.E.( -+p+^.2.q+r+: &.X ].N o.          ",
"            T.i.v.@+ +u.2.n._ s+ +t+8+]+N p.[+w.f+o.            ",
"              &.].u+M..+v+d.d.3.w+e+x.++L.].x.d.o.              ",
"                  &.4.T.x+++++e.X y+L.w.,+z+N                   ",
"                      r+M.,+u+u+,+K.z+A+N                       ",
"                                                                "};
