/* XPM */
static char * blue_ball_xpm[] = {
"32 32 308 2",
"  	c None",
". 	c #042A85",
"+ 	c #05309A",
"@ 	c #0633A3",
"# 	c #0634A4",
"$ 	c #06329D",
"% 	c #052F94",
"& 	c #052A87",
"* 	c #042575",
"= 	c #031C5A",
"- 	c #0632A0",
"; 	c #063AB6",
"> 	c #073DC3",
", 	c #0740C9",
"' 	c #0740CD",
") 	c #0740CB",
"! 	c #073EC8",
"~ 	c #073DC1",
"{ 	c #073BB9",
"] 	c #0636AE",
"^ 	c #052D8F",
"/ 	c #04277A",
"( 	c #031D5E",
"_ 	c #063099",
": 	c #073CBD",
"< 	c #0842D1",
"[ 	c #0946DC",
"} 	c #0848E3",
"| 	c #0849E8",
"1 	c #0848E6",
"2 	c #0847E1",
"3 	c #0845DB",
"4 	c #0842D2",
"5 	c #083FC8",
"6 	c #073ABB",
"7 	c #0636AC",
"8 	c #06309A",
"9 	c #052A86",
"0 	c #04226C",
"a 	c #021646",
"b 	c #0736AD",
"c 	c #0841CD",
"d 	c #0948E2",
"e 	c #0A4BEE",
"f 	c #0A4FF6",
"g 	c #0A50F8",
"h 	c #0950F6",
"i 	c #094FF4",
"j 	c #094FF2",
"k 	c #094DF1",
"l 	c #094BEE",
"m 	c #0948E6",
"n 	c #0841CF",
"o 	c #073CC0",
"p 	c #0737B0",
"q 	c #06329E",
"r 	c #052B89",
"s 	c #04236F",
"t 	c #03184D",
"u 	c #0738B2",
"v 	c #0843D4",
"w 	c #0A4AEA",
"x 	c #0B50FA",
"y 	c #0B53FC",
"z 	c #0C55FA",
"A 	c #0C56F8",
"B 	c #0B56F6",
"C 	c #0A55F4",
"D 	c #0A53F2",
"E 	c #0A51F0",
"F 	c #0A50EE",
"G 	c #094CEC",
"H 	c #0949E9",
"I 	c #0946DE",
"J 	c #0842D0",
"K 	c #06319C",
"L 	c #052B87",
"M 	c #021749",
"N 	c #0A4CEE",
"O 	c #0C52FE",
"P 	c #0E58FE",
"Q 	c #0F5BFD",
"R 	c #0F5DFC",
"S 	c #0F5DFA",
"T 	c #0E5BF6",
"U 	c #0C59F3",
"V 	c #0B58F1",
"W 	c #0A56EF",
"X 	c #0A53ED",
"Y 	c #0A51EB",
"Z 	c #0A4DE9",
"` 	c #0949E8",
" .	c #0945DC",
"..	c #0841CE",
"+.	c #073BBD",
"@.	c #0735AB",
"#.	c #063097",
"$.	c #05287F",
"%.	c #041F64",
"&.	c #021441",
"*.	c #0F59FF",
"=.	c #125FFF",
"-.	c #1664FF",
";.	c #1767FF",
">.	c #1666FF",
",.	c #1364FA",
"'.	c #0F5FF5",
").	c #0C5BF1",
"!.	c #0B59EE",
"~.	c #0B56EC",
"{.	c #0A53EA",
"].	c #0A50E8",
"^.	c #094DE7",
"/.	c #0848E5",
"(.	c #0843D7",
"_.	c #073EC7",
":.	c #073AB5",
"<.	c #052D8D",
"[.	c #042474",
"}.	c #031B56",
"|.	c #031B54",
"1.	c #1968FF",
"2.	c #1F70FF",
"3.	c #2376FF",
"4.	c #1D71FF",
"5.	c #1568FA",
"6.	c #0F60F2",
"7.	c #0C5CEE",
"8.	c #0B58EB",
"9.	c #0B56E9",
"0.	c #0952E7",
"a.	c #094EE6",
"b.	c #084BE4",
"c.	c #0846DE",
"d.	c #0741CF",
"e.	c #073CBE",
"f.	c #0635AB",
"g.	c #062F96",
"h.	c #052880",
"i.	c #042065",
"j.	c #021544",
"k.	c #2B7EFF",
"l.	c #368AFF",
"m.	c #398EFF",
"n.	c #3285FF",
"o.	c #1668F7",
"p.	c #0E5FEE",
"q.	c #0B5AEA",
"r.	c #0B57E8",
"s.	c #0A54E6",
"t.	c #094FE5",
"u.	c #094CE3",
"v.	c #0842D4",
"w.	c #0638B1",
"x.	c #06319E",
"y.	c #052B88",
"z.	c #031A52",
"A.	c #031A54",
"B.	c #4A9EFF",
"C.	c #55A9FF",
"D.	c #4DA2FF",
"E.	c #378BFF",
"F.	c #1F72FF",
"G.	c #1162F0",
"H.	c #0C5BE9",
"I.	c #0B58E7",
"J.	c #0A54E5",
"K.	c #0951E3",
"L.	c #094DE2",
"M.	c #0849E0",
"N.	c #0844D7",
"O.	c #073FC7",
"P.	c #0639B5",
"Q.	c #0633A2",
"R.	c #052576",
"S.	c #031D5C",
"T.	c #021543",
"U.	c #69BEFF",
"V.	c #67BCFF",
"W.	c #4CA0FF",
"X.	c #2A7DFF",
"Y.	c #1566F2",
"Z.	c #0C5CE9",
"`.	c #0B58E6",
" +	c #0A55E4",
".+	c #0950E2",
"++	c #094DE1",
"@+	c #0849DF",
"#+	c #0844D8",
"$+	c #073FC9",
"%+	c #063AB8",
"&+	c #0633A5",
"*+	c #052D91",
"=+	c #05267B",
"-+	c #041E61",
";+	c #021442",
">+	c #04216A",
",+	c #6CC0FF",
"'+	c #54A7FF",
")+	c #2F81FF",
"!+	c #1667F2",
"~+	c #0C5CE8",
"{+	c #0A58E4",
"]+	c #0A54E3",
"^+	c #0951E1",
"/+	c #094DE0",
"(+	c #0849DE",
"_+	c #073AB8",
":+	c #0634A6",
"<+	c #052E92",
"[+	c #05277D",
"}+	c #021747",
"|+	c #031C5B",
"1+	c #4497FF",
"2+	c #287AFF",
"3+	c #1464EE",
"4+	c #0C5BE6",
"5+	c #0A56E3",
"6+	c #0A54E1",
"7+	c #0950E0",
"8+	c #094CDE",
"9+	c #0848DD",
"0+	c #073FC8",
"a+	c #0739B7",
"b+	c #04277D",
"c+	c #031749",
"d+	c #1A6AF4",
"e+	c #0F5EE9",
"f+	c #0B59E4",
"g+	c #0A56E2",
"h+	c #0A52E0",
"i+	c #094FDF",
"j+	c #094BDD",
"k+	c #0847DC",
"l+	c #073EC5",
"m+	c #0634A3",
"n+	c #04267C",
"o+	c #03174A",
"p+	c #031952",
"q+	c #0A53E0",
"r+	c #0A50DF",
"s+	c #094DDE",
"t+	c #094ADC",
"u+	c #0846DB",
"v+	c #0841D0",
"w+	c #0633A0",
"x+	c #052C8E",
"y+	c #042679",
"z+	c #041F63",
"A+	c #031648",
"B+	c #031951",
"C+	c #0A54E0",
"D+	c #0A51DF",
"E+	c #094FDE",
"F+	c #094CDC",
"G+	c #0848DB",
"H+	c #0740CA",
"I+	c #073BBC",
"J+	c #05319B",
"K+	c #042475",
"L+	c #041E5E",
"M+	c #0949DB",
"N+	c #0846DA",
"O+	c #0739B6",
"P+	c #052F95",
"Q+	c #042983",
"R+	c #042370",
"S+	c #031C59",
"T+	c #02143F",
"U+	c #094ADB",
"V+	c #0847DA",
"W+	c #0843D5",
"X+	c #0637AE",
"Y+	c #06329F",
"Z+	c #052D8E",
"`+	c #04277C",
" @	c #042168",
".@	c #021440",
"+@	c #031F61",
"@@	c #0844D6",
"#@	c #0638B3",
"$@	c #0634A5",
"%@	c #052F96",
"&@	c #042A86",
"*@	c #041E60",
"=@	c #031748",
"-@	c #03226D",
";@	c #0635A9",
">@	c #052C8C",
",@	c #04226A",
"'@	c #031B57",
")@	c #031A53",
"!@	c #0636AA",
"~@	c #052D90",
"{@	c #042881",
"]@	c #042371",
"^@	c #041D5F",
"/@	c #03184B",
"(@	c #031E61",
"_@	c #052D92",
":@	c #042984",
"<@	c #042064",
"[@	c #02133E",
"}@	c #031A51",
"|@	c #042576",
"1@	c #031F64",
"2@	c #031647",
"3@	c #032065",
"                                                                ",
"                      . + @ # @ $ % & * =                       ",
"                  - ; > , ' ) ! ~ { ] - ^ / (                   ",
"              _ : < [ } | | 1 2 3 4 5 6 7 8 9 0 a               ",
"            b c d e f g h i j k l m 3 n o p q r s t             ",
"          u v w x y z A B C D E F G H I J ~ p K L 0 M           ",
"        b v N O P Q R S T U V W X Y Z `  ...+.@.#.$.%.&.        ",
"      _ c w O *.=.-.;.>.,.'.).!.~.{.].^./.(._.:.@ <.[.}.|.      ",
"      : d x P =.1.2.3.3.4.5.6.7.8.9.0.a.b.c.d.e.f.g.h.i.j.      ",
"    - < e y Q -.2.k.l.m.n.3.o.p.q.r.s.t.u.2 v.> w.x.y.s z.A.    ",
"    ; [ f z R ;.3.l.B.C.D.E.F.G.H.I.J.K.L.M.N.O.P.Q.<.R.S.T.    ",
"  . > } g A S >.3.m.C.U.V.W.X.Y.Z.`. +.+++@+#+$+%+&+*+=+-+;+>+  ",
"  + , | h B T ,.4.n.D.V.,+'+)+!+~+{+]+^+/+(+#+$+_+:+<+[+%.}+|+  ",
"  @ ' | i C U '.5.3.E.W.'+1+2+3+4+5+6+7+8+9+N.0+a+:+<+b+i.c+A.  ",
"  # ) 1 j D V ).6.o.F.X.)+2+d+e+f+g+h+i+j+k+v.l+P.m+*+n+i.o+p+  ",
"  @ ! 2 k E W !.7.p.G.Y.!+3+e+f+g+q+r+s+t+u+v+~ w.w+x+y+z+A+B+  ",
"  $ ~ 3 l F X ~.8.q.H.Z.~+4+f+g+C+D+E+F+G+#+H+I+7 J+r K+L+j.A.  ",
"  % { 4 m G Y {.9.r.I.`.{+5+g+q+D+E+F+M+N+< > O+:+P+Q+R+S+T+S+  ",
"  & ] 5 3 H Z ].0.s.J. +]+6+h+r+E+F+U+V+W+$+I+X+Y+Z+`+ @p+.@+@  ",
"  * - 6 n I ` ^.a.t.K..+^+7+i+s+F+M+V+@@) o #@$@%@&@[.*@o+=@-@  ",
"  = ^ 7 o J  ./.b.u.L.++/+8+j+t+G+N+W+) ~ O+;@J+>@`+,@'@.@)@}.  ",
"    / 8 p ~ ..(.c.2 M.@+(+9+k+u+#+< $+o O+!@$ ~@{@]@^@/@T.(@    ",
"    ( 9 q p +._.d.v.N.#+#+N.v.v+H+> I+#@;@$ _@:@* <@z.[@}@*     ",
"      0 r K @.:.e.> O.$+$+0+l+~ I+O+X+$@J+~@:@|@ @'@j.=@1@      ",
"      a s L #.@ f.w.P.%+_+a+P.w.7 :+Y+%@>@{@*  @S+2@T.= 3@      ",
"        t 0 $.<.g.x.Q.&+:+:+m+w+J+P+Z+&@`+]@<@'@2@&.}.3@        ",
"          M %.[.h.y.<.*+<+<+*+x+r Q+`+[.,@^@z.j.T.}.3@          ",
"            &.}.i.s R.=+[+b+n+y+K+R+ @*@'@/@[@=@= 3@            ",
"              |.j.z.S.-+%.i.i.z+L+S+p+o+.@T.}@1@3@              ",
"                  A.T.;+}+c+o+A+j.T+.@=@)@(@}.                  ",
"                      >+|+A.p+B+A.S++@-@}.                      ",
"                                                                "};
