/* XPM */
static char * green_ball_xpm[] = {
"32 32 279 2",
"  	c None",
". 	c #096F15",
"+ 	c #0B8119",
"@ 	c #0C871A",
"# 	c #0C891A",
"$ 	c #0C8219",
"% 	c #0B7B18",
"& 	c #0A7016",
"* 	c #096213",
"= 	c #064A0E",
"- 	c #0C8619",
"; 	c #0D991D",
"> 	c #0EA21F",
", 	c #0FA821",
"' 	c #0FAA20",
") 	c #0FA920",
"! 	c #0FA620",
"~ 	c #0FA11F",
"{ 	c #0E9A1E",
"] 	c #0D911B",
"^ 	c #0C8519",
"/ 	c #0A7816",
"( 	c #096613",
"_ 	c #074E0F",
": 	c #0C7F19",
"< 	c #0F9D1F",
"[ 	c #10AE21",
"} 	c #10B823",
"| 	c #11BD25",
"1 	c #11C125",
"2 	c #11C025",
"3 	c #11BB25",
"4 	c #10B623",
"5 	c #0FAF22",
"6 	c #0EA620",
"7 	c #0E9C1E",
"8 	c #0C901C",
"9 	c #097015",
"0 	c #085A11",
"a 	c #053B0B",
"b 	c #0D901C",
"c 	c #10AB21",
"d 	c #11BC25",
"e 	c #12C627",
"f 	c #13CE28",
"g 	c #13D129",
"h 	c #13D229",
"i 	c #13D329",
"j 	c #13D029",
"k 	c #12CC27",
"l 	c #11C626",
"m 	c #11BF25",
"n 	c #10B723",
"o 	c #0FAC21",
"p 	c #0EA11E",
"q 	c #0D931C",
"r 	c #0C8419",
"s 	c #0A7216",
"t 	c #085D12",
"u 	c #06400C",
"v 	c #0E941D",
"w 	c #10B122",
"x 	c #13C427",
"y 	c #14D12A",
"z 	c #15D92C",
"A 	c #16DF2C",
"B 	c #15E12D",
"C 	c #15E22D",
"D 	c #14DF2C",
"E 	c #14DD2A",
"F 	c #13D82A",
"G 	c #11C325",
"H 	c #11B923",
"I 	c #0EA11F",
"J 	c #0C8319",
"K 	c #0A7015",
"L 	c #063D0C",
"M 	c #13C628",
"N 	c #16D62C",
"O 	c #18E22F",
"P 	c #19E931",
"Q 	c #1AED32",
"R 	c #19EF32",
"S 	c #18EE30",
"T 	c #17EB2F",
"U 	c #15E72D",
"V 	c #14E32C",
"W 	c #14DC2A",
"X 	c #13D529",
"Y 	c #12C226",
"Z 	c #11B824",
"` 	c #0E9E1F",
" .	c #0D8E1C",
"..	c #0B7E18",
"+.	c #096A14",
"@.	c #075310",
"#.	c #05350A",
"$.	c #19E430",
"%.	c #1DF034",
"&.	c #21F839",
"*.	c #22FE3B",
"=.	c #20FE39",
"-.	c #1DFA37",
";.	c #19F533",
">.	c #17F02F",
",.	c #15EA2E",
"'.	c #15E32C",
").	c #14DC2B",
"!.	c #12CA26",
"~.	c #11BF24",
"{.	c #10B322",
"].	c #0E981D",
"^.	c #0C881A",
"/.	c #0A7516",
"(.	c #086112",
"_.	c #06480E",
":.	c #05340A",
"<.	c #23FD3C",
"[.	c #2AFF43",
"}.	c #2FFF48",
"|.	c #2EFF48",
"1.	c #28FF42",
"2.	c #21FA3A",
"3.	c #1AF234",
"4.	c #17EE2F",
"5.	c #15E92D",
"6.	c #15E22B",
"7.	c #13D92A",
"8.	c #12CF28",
"9.	c #11C526",
"0.	c #10B924",
"a.	c #0E9E1E",
"b.	c #0D8F1B",
"c.	c #0B7D18",
"d.	c #096B14",
"e.	c #075410",
"f.	c #05380A",
"g.	c #36FF50",
"h.	c #41FF5B",
"i.	c #45FF5E",
"j.	c #3DFF56",
"k.	c #20F73A",
"l.	c #19EE32",
"m.	c #16EA2E",
"n.	c #15E52C",
"o.	c #13DC2B",
"p.	c #12C827",
"q.	c #0FB022",
"r.	c #0EA31F",
"s.	c #0D941C",
"t.	c #0A7116",
"u.	c #085D11",
"v.	c #05440D",
"w.	c #05330A",
"x.	c #55FF6F",
"y.	c #60FF7A",
"z.	c #59FF73",
"A.	c #42FF5C",
"B.	c #2BFF44",
"C.	c #1CF035",
"D.	c #17E92F",
"E.	c #14E72D",
"F.	c #14DF2B",
"G.	c #13D52A",
"H.	c #12CB27",
"I.	c #0FA520",
"J.	c #0D971D",
"K.	c #0B7616",
"L.	c #064C0F",
"M.	c #043309",
"N.	c #74FF8F",
"O.	c #72FF8C",
"P.	c #57FF71",
"Q.	c #35FF4F",
"R.	c #20F238",
"S.	c #17E930",
"T.	c #15E62D",
"U.	c #13D629",
"V.	c #10B522",
"W.	c #0FA720",
"X.	c #0D991E",
"Y.	c #0C8A1B",
"Z.	c #0A7817",
"`.	c #096614",
" +	c #07500F",
".+	c #04370A",
"++	c #043209",
"@+	c #77FF92",
"#+	c #5FFF79",
"$+	c #3AFF54",
"%+	c #21F23A",
"&+	c #17E82F",
"*+	c #15E42D",
"=+	c #14DE2B",
"-+	c #10B523",
";+	c #0E991D",
">+	c #0C8B1B",
",+	c #0A7A17",
"'+	c #096814",
")+	c #053C0B",
"!+	c #4FFF68",
"~+	c #33FF4C",
"{+	c #1FEE37",
"]+	c #16E62F",
"^+	c #13D429",
"/+	c #12C927",
"(+	c #10B323",
"_+	c #096813",
":+	c #075510",
"<+	c #053D0C",
"[+	c #24F43D",
"}+	c #19E932",
"|+	c #16E42E",
"1+	c #14E12C",
"2+	c #14D92A",
"3+	c #13D128",
"4+	c #12C727",
"5+	c #11BC24",
"6+	c #10B022",
"7+	c #0FA420",
"8+	c #0A7917",
"9+	c #096713",
"0+	c #053E0C",
"a+	c #15E22C",
"b+	c #14DD2B",
"c+	c #13CC28",
"d+	c #12C326",
"e+	c #10AD22",
"f+	c #0A7617",
"g+	c #096513",
"h+	c #075210",
"i+	c #14D72A",
"j+	c #13D028",
"k+	c #12C826",
"l+	c #11BE24",
"m+	c #10B423",
"n+	c #0D901B",
"o+	c #0B8118",
"p+	c #096112",
"q+	c #074F0F",
"r+	c #05390B",
"s+	c #043109",
"t+	c #12C926",
"u+	c #12C125",
"v+	c #11B823",
"w+	c #10AE22",
"x+	c #0FA320",
"y+	c #0E971D",
"z+	c #0C8A1A",
"A+	c #096D15",
"B+	c #04350A",
"C+	c #12C225",
"D+	c #11BA23",
"E+	c #0E9D1E",
"F+	c #0D911C",
"G+	c #085711",
"H+	c #06440D",
"I+	c #10B222",
"J+	c #0E9F1F",
"K+	c #0D951D",
"L+	c #096F16",
"M+	c #086012",
"N+	c #0D8D1B",
"O+	c #096714",
"P+	c #085911",
"Q+	c #06480D",
"R+	c #04340A",
"S+	c #0D8E1B",
"T+	c #096B15",
"U+	c #085E12",
"V+	c #0B7917",
"W+	c #096E15",
"X+	c #086213",
"Y+	c #085410",
"Z+	c #04330A",
"`+	c #043009",
" @	c #086313",
".@	c #085610",
"+@	c #06490E",
"                                                                ",
"                      . + @ # @ $ % & * =                       ",
"                  - ; > , ' ) ! ~ { ] ^ / ( _                   ",
"              : < [ } | 1 1 2 3 4 5 6 7 8 + 9 0 a               ",
"            b c d e f g h i j k l m n o p q r s t u             ",
"          v w x y z A B C D E F i k G H [ I q J K 0 L           ",
"        b w M N O P Q R S T U V W X k Y Z c `  ...+.@.#.        ",
"      : c x N $.%.&.*.=.-.;.>.,.'.).i !.~.{.! ].^./.(._.:.      ",
"      < d y O %.<.[.}.|.1.2.3.4.5.6.7.8.9.0.o a.b.c.d.e.f.      ",
"    - [ e z P &.[.g.h.i.j.|.k.l.m.n.o.i p.| q.r.s.J t.u.v.w.    ",
"    ; } f A Q *.}.h.x.y.z.A.B.C.D.E.F.G.H.2 {.I.J.^.K.* L.M.    ",
"  . > | g B R =.|.i.y.N.O.P.Q.R.S.T.F.U.k 2 V.W.X.Y.Z.`. +.+++  ",
"  + , 1 h C S -.1.j.z.O.@+#+$+%+&+*+=+U.H.2 -+W.;+>+,+'+@.)+++  ",
"  @ ' 1 i D T ;.2.|.A.P.#+!+~+{+]+'.).^+/+m (+W.;+Y.,+_+:+<+++  ",
"  # ) 2 j E U >.3.k.B.Q.$+~+[+}+|+1+2+3+4+5+6+7+J.# 8+9+e.0+++  ",
"  @ ! 3 k F V ,.4.l.C.R.%+{+}+|+a+b+X c+d+Z e+I s.^ f+g+h+)+++  ",
"  $ ~ 4 l i W '.5.m.D.S.&+]+|+a+=+i+j+k+l+m+, 7 n+o+s p+q+r+s+  ",
"  % { 5 m k X ).6.n.E.T.*+'.1+b+i+3+t+u+v+w+x+y+z+c.A+u.= B+s+  ",
"  & ] 6 n G k i 7.o.F.F.=+).2+X j+t+C+D+w W.E+F+r f+'+G+H+s+s+  ",
"  * ^ 7 o H Y !.8.i G.U.U.^+3+c+k+u+D+I+) J+K+# c.L+M+ +<+s+s+  ",
"  = / 8 p [ Z ~.9.p.H.k H./+4+d+l+v+w ) ~ y+N++ /.O+P+Q+R+s+s+  ",
"    ( + q I c {.0.| 2 2 2 m 5+Z m+w+W.J+y+S+r Z.T+U+q+0+s+s+    ",
"    _ 9 r q ` ! o q.{.V.-+(+6+e+, x+E+K+N+r V+W+X+Y+H+Z+s+`+    ",
"      0 s J  .].a.r.I.W.W.W.7+I 7 y+F+# + Z.W+ @.@+@r+s+`+      ",
"      a t K ..^.b.s.J.X.;+;+J.s.n+z+r c./.T+X+.@+@a s+`+`+      ",
"        u 0 +./.c.J ^.Y.>+Y.# ^ o+c.f+L+O+U+Y++@a s+`+`+        ",
"          L @.(.d.t.K.Z.,+,+8+f+s A+'+M+P+q+H+r+s+`+`+          ",
"            #._.e.u.* `.'+_+9+g+p+u.G+ +Q+0+Z+s+`+`+            ",
"              :.f.v.L. +@.:+e.h+q+= H+<+R+s+s+`+`+              ",
"                  w.M..+)+<+0+)+r+B+s+s+s+s+`+                  ",
"                      ++++++++++s+s+s+s+s+                      ",
"                                                                "};
