/* XPM */
static char * icon_face_xpm[] = {
"16 16 148 2",
"  	c None",
". 	c #073ABA",
"+ 	c #073CC0",
"@ 	c #0639B4",
"# 	c #062E94",
"$ 	c #0945DA",
"% 	c #0A4DEE",
"& 	c #0A51F6",
"* 	c #094FF6",
"= 	c #084BED",
"- 	c #0842D4",
"; 	c #0637AE",
"> 	c #052A85",
", 	c #0A4DEC",
"' 	c #0E5CFF",
") 	c #0F62FF",
"! 	c #0D62FF",
"~ 	c #0C5EFF",
"{ 	c #0B59FF",
"] 	c #0A51FC",
"^ 	c #0847E3",
"/ 	c #073AB9",
"( 	c #052880",
"_ 	c #0A4CEA",
": 	c #0E60FF",
"< 	c #156EFF",
"[ 	c #1975FF",
"} 	c #1470FF",
"| 	c #0E68FF",
"1 	c #0C62FF",
"2 	c #0B5AFF",
"3 	c #0A50FB",
"4 	c #0845DA",
"5 	c #0636AC",
"6 	c #04226D",
"7 	c #0844D6",
"8 	c #0B58FF",
"9 	c #1069FF",
"0 	c #1BF407",
"a 	c #6FE05E",
"b 	c #2384FF",
"c 	c #1271FF",
"d 	c #0C66FF",
"e 	c #0B5FFF",
"f 	c #083CC2",
"g 	c #062C8D",
"h 	c #031D5C",
"i 	c #094BEC",
"j 	c #0F6AFF",
"k 	c #3092FF",
"l 	c #1776FF",
"m 	c #0C68FF",
"n 	c #0C61FF",
"o 	c #0840CC",
"p 	c #06319C",
"q 	c #031E5F",
"r 	c #0639B6",
"s 	c #094FF4",
"t 	c #0D69FF",
"u 	c #1172FF",
"v 	c #1C7EFF",
"w 	c #2081FF",
"x 	c #1372FF",
"y 	c #0C67FF",
"z 	c #0C60FF",
"A 	c #0A58FF",
"B 	c #0A4DF4",
"C 	c #0840CE",
"D 	c #0632A0",
"E 	c #032066",
"F 	c #032068",
"G 	c #073BBC",
"H 	c #084DF3",
"I 	c #0B5CFF",
"J 	c #0D6BFF",
"K 	c #0F6EFF",
"L 	c #106EFF",
"M 	c #0E69FF",
"N 	c #0C64FF",
"O 	c #0C5DFF",
"P 	c #0A55FF",
"Q 	c #094BEE",
"R 	c #0740C9",
"S 	c #06319D",
"T 	c #042066",
"U 	c #031E60",
"V 	c #0637AF",
"W 	c #0849E8",
"X 	c #0A57FF",
"Y 	c #0B60FF",
"Z 	c #0C65FF",
"` 	c #0C5FFF",
" .	c #0847E1",
"..	c #063BBE",
"+.	c #052E92",
"@.	c #031D5D",
"#.	c #032067",
"$.	c #062E90",
"%.	c #0841CF",
"&.	c #0A4FFA",
"*.	c #0B5EFF",
"=.	c #0A52FE",
"-.	c #084AED",
";.	c #0741CF",
">.	c #042982",
",.	c #031B56",
"'.	c #04267A",
").	c #0636AA",
"!.	c #0846DD",
"~.	c #0A4FF8",
"{.	c #0A54FF",
"].	c #0843D5",
"^.	c #063AB8",
"/.	c #052F95",
"(.	c #04226B",
"_.	c #052881",
":.	c #0739B5",
"<.	c #0949E8",
"[.	c #0A4CF1",
"}.	c #063AB7",
"|.	c #05309B",
"1.	c #042678",
"2.	c #021A54",
"3.	c #042576",
"4.	c #05277C",
"5.	c #0635A8",
"6.	c #073CBE",
"7.	c #073FC8",
"8.	c #0840CB",
"9.	c #073EC6",
"0.	c #063BBC",
"a.	c #0636AB",
"b.	c #052E95",
"c.	c #031B57",
"d.	c #03216A",
"e.	c #042C8A",
"f.	c #063099",
"g.	c #06319E",
"h.	c #06319B",
"i.	c #052E91",
"j.	c #042881",
"k.	c #04226A",
"l.	c #031C5A",
"m.	c #032065",
"n.	c #042065",
"o.	c #031C5C",
"p.	c #032169",
"q.	c #042679",
"            . + @ #             ",
"        $ % & * = - ; >         ",
"      , ' ) ! ~ { ] ^ / (       ",
"    _ : < [ } | 1 2 3 4 5 6     ",
"  7 8 9 0 a b c d e a 0 f g h   ",
"  i ~ j a 0 k l m n 0 a o p q   ",
"r s ~ t u v w x y z A B C D E F ",
"G H I d J K L M N O P Q R S T U ",
"V W X Y Z y d N ` 8 ]  ...+.@.#.",
"$.%.&.8 *.z ` O 8 =.-.;.5 >.,.'.",
"  ).!.~.{.X a 0 0 a ].^./.(.h   ",
"  _.:.].<.[.[.a a [.}.|.1.2.3.  ",
"    4.5.6.7.8.9.0.a.b.1.c.E     ",
"      d.e.f.g.h.i.j.k.2.E       ",
"        l.@.m.n.h ,.o.p.        ",
"            E q E q.            "};
