/* XPM */
static char * purple_ball_xpm[] = {
"32 32 302 2",
"  	c None",
". 	c #480581",
"+ 	c #540694",
"@ 	c #58069C",
"# 	c #59069E",
"$ 	c #550697",
"% 	c #50068F",
"& 	c #490582",
"* 	c #3F0471",
"= 	c #300356",
"- 	c #57079A",
"; 	c #6307AF",
"> 	c #6A08BC",
", 	c #6E08C2",
"' 	c #6F08C5",
") 	c #6E08C3",
"! 	c #6C08C0",
"~ 	c #6808BB",
"{ 	c #6407B2",
"] 	c #5E07A7",
"^ 	c #56069A",
"/ 	c #4D068A",
"( 	c #420576",
"_ 	c #33035B",
": 	c #530793",
"< 	c #6608B6",
"[ 	c #7109C9",
"} 	c #780AD4",
"| 	c #7C09DC",
"1 	c #7E09DF",
"2 	c #7D09DD",
"3 	c #7A09D9",
"4 	c #7609D3",
"5 	c #7209CA",
"6 	c #6608B4",
"7 	c #5E07A6",
"8 	c #540695",
"9 	c #3A0469",
"0 	c #260244",
"a 	c #5D07A6",
"b 	c #7009C6",
"c 	c #7A0AD9",
"d 	c #810AE5",
"e 	c #860BED",
"f 	c #880BF1",
"g 	c #890AF3",
"h 	c #880AF1",
"i 	c #850AEB",
"j 	c #810AE4",
"k 	c #7C0ADC",
"l 	c #7709D2",
"m 	c #7009C7",
"n 	c #6808B9",
"o 	c #6007AA",
"p 	c #560799",
"q 	c #4A0684",
"r 	c #3C046B",
"s 	c #29034B",
"t 	c #6008AB",
"u 	c #7309CC",
"v 	c #800BE1",
"w 	c #890CF0",
"x 	c #8E0CFB",
"y 	c #920DFA",
"z 	c #930DF8",
"A 	c #930CF6",
"B 	c #920BF4",
"C 	c #900BF2",
"D 	c #8D0BF0",
"E 	c #890BEE",
"F 	c #840AEB",
"G 	c #7F0AE1",
"H 	c #7809D5",
"I 	c #7109C8",
"J 	c #6908BA",
"K 	c #5F07A9",
"L 	c #550797",
"M 	c #480682",
"N 	c #3B0468",
"O 	c #270346",
"P 	c #810BE5",
"Q 	c #8C0DF6",
"R 	c #940FFE",
"S 	c #9A10FD",
"T 	c #9D10FC",
"U 	c #9D10FA",
"V 	c #9C0FF6",
"W 	c #990DF3",
"X 	c #960CF1",
"Y 	c #930BEF",
"Z 	c #8F0BED",
"` 	c #8A0BEB",
" .	c #840AE9",
"..	c #7F0AE0",
"+.	c #7809D4",
"@.	c #7008C6",
"#.	c #6708B6",
"$.	c #5C07A5",
"%.	c #520691",
"&.	c #45057B",
"*.	c #360460",
"=.	c #23023D",
"-.	c #9610FF",
";.	c #9F13FF",
">.	c #A617FF",
",.	c #A918FF",
"'.	c #A917FF",
").	c #A614FA",
"!.	c #A210F5",
"~.	c #9C0DF1",
"{.	c #980CEE",
"].	c #940CEC",
"^.	c #8F0BEA",
"/.	c #890AE8",
"(.	c #8309E7",
"_.	c #7408CF",
":.	c #6207AE",
"<.	c #58069D",
"[.	c #4D0687",
"}.	c #3F0570",
"|.	c #2E0353",
"1.	c #22023C",
"2.	c #AA1AFF",
"3.	c #B420FF",
"4.	c #BA24FF",
"5.	c #B51FFF",
"6.	c #AB16FA",
"7.	c #A310F2",
"8.	c #9D0DEE",
"9.	c #980CEB",
"0.	c #930BE9",
"a.	c #8D0AE7",
"b.	c #870AE6",
"c.	c #8009E3",
"d.	c #7809D6",
"e.	c #7008C7",
"f.	c #6707B7",
"g.	c #5C06A5",
"h.	c #510691",
"i.	c #370461",
"j.	c #250241",
"k.	c #C22CFF",
"l.	c #CF37FF",
"m.	c #D23AFF",
"n.	c #CA33FF",
"o.	c #BB24FF",
"p.	c #AB17F7",
"q.	c #A10FEE",
"r.	c #9A0CEA",
"s.	c #950BE8",
"t.	c #8F0BE6",
"u.	c #890AE5",
"v.	c #830AE3",
"w.	c #7B09DA",
"x.	c #7308CB",
"y.	c #6007AB",
"z.	c #550698",
"A.	c #4A0583",
"B.	c #3C056B",
"C.	c #2C034E",
"D.	c #E34BFF",
"E.	c #EF55FF",
"F.	c #E84EFF",
"G.	c #D038FF",
"H.	c #B620FF",
"I.	c #A412F0",
"J.	c #9C0DE9",
"K.	c #960BE7",
"L.	c #900BE5",
"M.	c #8B0AE3",
"N.	c #840AE2",
"O.	c #7D09DE",
"P.	c #7509CF",
"Q.	c #6C08BF",
"R.	c #6307AE",
"S.	c #4D0588",
"T.	c #400571",
"U.	c #310457",
"V.	c #22023B",
"W.	c #FF6AFF",
"X.	c #FF68FF",
"Y.	c #E54DFF",
"Z.	c #C12BFF",
"`.	c #A916F2",
" +	c #9D0EE9",
".+	c #970BE6",
"++	c #910BE4",
"@+	c #8B0AE2",
"#+	c #850AE1",
"$+	c #7509D0",
"%+	c #6C08C1",
"&+	c #6407B0",
"*+	c #5A069F",
"=+	c #4E058B",
"-+	c #430576",
";+	c #35045E",
">+	c #24023F",
",+	c #21023B",
"'+	c #FF6DFF",
")+	c #EC55FF",
"!+	c #C530FF",
"~+	c #A917F2",
"{+	c #9D0EE8",
"]+	c #960BE4",
"^+	c #910BE3",
"/+	c #8A0AE1",
"(+	c #840AE0",
"_+	c #6D08C1",
":+	c #6307B1",
"<+	c #5A06A0",
"[+	c #50058D",
"}+	c #430578",
"|+	c #360461",
"1+	c #260345",
"2+	c #21023A",
"3+	c #DB45FF",
"4+	c #BD29FF",
"5+	c #A515EE",
"6+	c #9A0DE6",
"7+	c #950BE3",
"8+	c #8F0BE1",
"9+	c #8A0AE0",
"0+	c #840ADE",
"a+	c #7509CE",
"b+	c #6307B0",
"c+	c #4F058C",
"d+	c #440478",
"e+	c #370462",
"f+	c #280347",
"g+	c #AC1AF4",
"h+	c #9F10E9",
"i+	c #980CE4",
"j+	c #930BE2",
"k+	c #8D0BE0",
"l+	c #880ADF",
"m+	c #810ADD",
"n+	c #7209CC",
"o+	c #6B08BE",
"p+	c #430477",
"q+	c #940BE2",
"r+	c #8F0BE0",
"s+	c #8B0ADF",
"t+	c #850ADE",
"u+	c #7F0ADC",
"v+	c #7008C8",
"w+	c #57069A",
"x+	c #420475",
"y+	c #36045F",
"z+	c #900BE0",
"A+	c #8C0BDF",
"B+	c #870ADE",
"C+	c #810ADC",
"D+	c #7B09DB",
"E+	c #6608B5",
"F+	c #5D07A5",
"G+	c #4A0584",
"H+	c #400471",
"I+	c #33045B",
"J+	c #250342",
"K+	c #210239",
"L+	c #880ADE",
"M+	c #830ADC",
"N+	c #7E0ADB",
"O+	c #7709D5",
"P+	c #5A07A0",
"Q+	c #510690",
"R+	c #47057E",
"S+	c #300456",
"T+	c #22023D",
"U+	c #200239",
"V+	c #7909D7",
"W+	c #7309CD",
"X+	c #560698",
"Y+	c #430577",
"Z+	c #380464",
"`+	c #2C034F",
" @	c #7409CD",
".@	c #6E08C4",
"+@	c #6808B8",
"@@	c #6107AC",
"#@	c #59079F",
"$@	c #480580",
"%@	c #3E046F",
"&@	c #34045D",
"*@	c #6908B9",
"=@	c #5C07A2",
"-@	c #4C0587",
";@	c #390466",
">@	c #2E0453",
",@	c #200238",
"'@	c #5C07A4",
")@	c #4E068A",
"!@	c #46057C",
"~@	c #3D046D",
"{@	c #280348",
"]@	c #4E068C",
"^@	c #47057F",
"/@	c #400470",
"(@	c #400472",
"_@	c #2F0454",
":@	c #300455",
"<@	c #270344",
"                                                                ",
"                      . + @ # @ $ % & * =                       ",
"                  - ; > , ' ) ! ~ { ] ^ / ( _                   ",
"              : < [ } | 1 1 2 3 4 5 ! 6 7 8 . 9 0               ",
"            a b c d e f g g h i j k l m n o p q r s             ",
"          t u v w x y z A B C D E F G H I J K L M N O           ",
"        a u P Q R S T U V W X Y Z `  ...+.@.#.$.%.&.*.=.        ",
"      : b v Q -.;.>.,.'.).!.~.{.].^./.(.2 _.! :.<.[.}.|.1.      ",
"      < c w R ;.2.3.4.4.5.6.7.8.9.0.a.b.c.d.e.f.g.h.&.i.j.      ",
"    - [ d x S >.3.k.l.m.n.o.p.q.r.s.t.u.v.w.x.> y.z.A.B.C.1.    ",
"    ; } e y T ,.4.l.D.E.F.G.H.I.J.K.L.M.N.O.P.Q.R.@ S.T.U.V.    ",
"  . > | f z U '.4.m.E.W.X.Y.Z.`. +.+++@+#+O.$+%+&+*+=+-+;+>+,+  ",
"  + , 1 g A V ).5.n.F.X.'+)+!+~+{+]+^+/+(+O.$+_+:+<+[+}+|+1+2+  ",
"  @ ' 1 g B W !.6.o.G.Y.)+3+4+5+6+7+8+9+0+| a+! b+*+c+d+e+f+2+  ",
"  # ) 2 h C X ~.7.p.H.Z.!+4+g+h+i+j+k+l+m+3 n+o+:.# =+p+i.f+2+  ",
"  @ ! 3 i D Y {.8.q.I.`.~+5+h+i+q+r+s+t+u+H v+J o w+S.x+y+O 2+  ",
"  $ ~ 4 j E Z ].9.r.J. +{+6+i+q+z+A+B+C+D+P.) E+F+8 G+H+I+J+K+  ",
"  % { 5 k F ` ^.0.s.K..+]+7+j+r+A+L+M+N+O+[ > R.P+Q+R+r S+T+U+  ",
"  & ] ! l G  ./.a.t.L.++^+8+k+s+B+M+N+V+W+_+E+] X+S.Y+Z+`+U+U+  ",
"  * ^ 6 m H ..(.b.u.M.@+/+9+l+t+C+N+V+ @.@+@@@#@Q+$@%@&@f+U+U+  ",
"  = / 7 n I +.2 c.v.N.#+(+0+m+u+D+O+W+.@*@:.=@8 -@Y+;@>@T+U+,@  ",
"    ( 8 o J @._.d.w.O.O.O.| 3 H P.[ _++@:.'@z.)@!@~@I+{@U+U+    ",
"    _ . p K #.! e.x.P.$+$+a+n+v+) > E+@@=@z.]@^@/@|+`+,+U+,@    ",
"      9 q L $.:.f.> Q.%+_+! o+J E+R.] #@8 )@^@(@Z+_@J+U+,@      ",
"      0 r M %.<.g.y.R.&+:+b+:.o F+P+X+Q+-@!@/@Z+:@<@U+,@,@      ",
"        s N &.[.h.z.@ *+<+*+# w+8 Q+S.$@Y+~@|+_@<@U+,@,@        ",
"          O *.}.&.A.S.=+[+c+=+S.G+R+Y+%@;@I+`+J+U+,@,@          ",
"            =.|.i.B.T.-+}+d+p+x+H+r Z+&@>@{@,+U+,@,@            ",
"              1.j.C.U.;+|+e+i.y+I+S+`+f+T+U+U+,@,@              ",
"                  1.V.>+1+f+f+O J+T+U+U+U+U+,@                  ",
"                      ,+2+2+2+2+K+U+U+U+,@                      ",
"                                                                "};
