/* XPM */
static char * red_ball_xpm[] = {
"32 32 297 2",
"  	c None",
". 	c #85070D",
"+ 	c #9A080F",
"@ 	c #A30910",
"# 	c #A40910",
"$ 	c #9D0910",
"% 	c #94080F",
"& 	c #87070E",
"* 	c #75060C",
"= 	c #5A0509",
"- 	c #A00910",
"; 	c #B60A12",
"> 	c #C30B13",
", 	c #C90B14",
"' 	c #CD0B14",
") 	c #CB0B14",
"! 	c #C80B14",
"~ 	c #C10B13",
"{ 	c #B90A12",
"] 	c #AE0A11",
"^ 	c #8F080E",
"/ 	c #7A070C",
"( 	c #5E0509",
"_ 	c #99090F",
": 	c #BD0B13",
"< 	c #D10C15",
"[ 	c #DC0D16",
"} 	c #E30C17",
"| 	c #E80D17",
"1 	c #E60D16",
"2 	c #E10D16",
"3 	c #DB0C16",
"4 	c #D20C15",
"5 	c #BB0B13",
"6 	c #AC0A11",
"7 	c #9A090F",
"8 	c #86080D",
"9 	c #6C060A",
"0 	c #460407",
"a 	c #AD0A11",
"b 	c #CD0C15",
"c 	c #E20D17",
"d 	c #EE0E18",
"e 	c #F60F19",
"f 	c #F80F19",
"g 	c #F60E1A",
"h 	c #F40E1A",
"i 	c #F20E19",
"j 	c #F10E18",
"k 	c #E60D17",
"l 	c #CF0B15",
"m 	c #C00A13",
"n 	c #B00912",
"o 	c #9E0810",
"p 	c #89070E",
"q 	c #6F060B",
"r 	c #4D0407",
"s 	c #B20A12",
"t 	c #D40C15",
"u 	c #EA0F19",
"v 	c #FA101A",
"w 	c #FC101C",
"x 	c #FA111D",
"y 	c #F8111C",
"z 	c #F6101B",
"A 	c #F40F1B",
"B 	c #F20F1A",
"C 	c #F00F1A",
"D 	c #EE0E19",
"E 	c #EC0D19",
"F 	c #E90D17",
"G 	c #DE0C16",
"H 	c #D00B14",
"I 	c #C10A13",
"J 	c #B00911",
"K 	c #9C080F",
"L 	c #6C060B",
"M 	c #490407",
"N 	c #EE0F19",
"O 	c #FE111C",
"P 	c #FE131E",
"Q 	c #FD1420",
"R 	c #FC1521",
"S 	c #FA1421",
"T 	c #F6131F",
"U 	c #F3111D",
"V 	c #F1101C",
"W 	c #EF101B",
"X 	c #ED0E1B",
"Y 	c #EB0E19",
"Z 	c #E90D18",
"` 	c #DC0C16",
" .	c #CE0B14",
"..	c #BD0A13",
"+.	c #AB0911",
"@.	c #97080E",
"#.	c #7F060D",
"$.	c #64060A",
"%.	c #400306",
"&.	c #FF1420",
"*.	c #FF1724",
"=.	c #FF1B27",
"-.	c #FF1C28",
";.	c #FF1B28",
">.	c #FA1825",
",.	c #F51521",
"'.	c #F1121E",
").	c #EE101C",
"!.	c #EC0F1B",
"~.	c #EA0F1A",
"{.	c #E80E19",
"].	c #E70D18",
"^.	c #E50D17",
"/.	c #D70C15",
"(.	c #C70B14",
"_.	c #B50A12",
":.	c #8D070E",
"<.	c #74060C",
"[.	c #560508",
"}.	c #3F0306",
"|.	c #FF1E2A",
"1.	c #FF2531",
"2.	c #FF2935",
"3.	c #FF2836",
"4.	c #FF2330",
"5.	c #FA1B28",
"6.	c #F21522",
"7.	c #EE121E",
"8.	c #EB101C",
"9.	c #E90F1B",
"0.	c #E70F1A",
"a.	c #E60E19",
"b.	c #E40D18",
"c.	c #CF0C15",
"d.	c #BE0B13",
"e.	c #96080F",
"f.	c #80070C",
"g.	c #65050A",
"h.	c #440406",
"i.	c #FF313E",
"j.	c #FF3B48",
"k.	c #FF3F4B",
"l.	c #FF3744",
"m.	c #FF2936",
"n.	c #F71A28",
"o.	c #EE1320",
"p.	c #EA111D",
"q.	c #E80F1C",
"r.	c #E60F1B",
"s.	c #E50E1A",
"t.	c #E30E18",
"u.	c #E10D17",
"v.	c #C30B14",
"w.	c #B10A12",
"x.	c #9E0910",
"y.	c #88070D",
"z.	c #520508",
"A.	c #3E0306",
"B.	c #FF4F5D",
"C.	c #FF5A67",
"D.	c #FF5360",
"E.	c #FF3D4A",
"F.	c #FF2532",
"G.	c #F01623",
"H.	c #E9111E",
"I.	c #E7101C",
"J.	c #E50F1B",
"K.	c #E30F19",
"L.	c #E20E18",
"M.	c #E00D16",
"N.	c #C70B13",
"O.	c #A20910",
"P.	c #8D080E",
"Q.	c #76060B",
"R.	c #5C0509",
"S.	c #FF6F7C",
"T.	c #FF6D7A",
"U.	c #FF525F",
"V.	c #FF303D",
"W.	c #F21A27",
"X.	c #E9121E",
"Y.	c #E6101C",
"Z.	c #E40F1A",
"`.	c #E20F19",
" +	c #E10E18",
".+	c #DF0D17",
"++	c #D80C15",
"@+	c #B80A12",
"#+	c #A50911",
"$+	c #91080E",
"%+	c #7B060C",
"&+	c #61050A",
"*+	c #420406",
"=+	c #3D0306",
"-+	c #FF727F",
";+	c #FF5966",
">+	c #FF3541",
",+	c #F21C28",
"'+	c #E8121E",
")+	c #E4101B",
"!+	c #E30F1A",
"~+	c #E10F19",
"{+	c #E00E18",
"]+	c #DE0D17",
"^+	c #C90C14",
"/+	c #A60910",
"(+	c #92080F",
"_+	c #7D070C",
":+	c #640509",
"<+	c #470407",
"[+	c #FF4956",
"}+	c #FF2D3A",
"|+	c #EE1925",
"1+	c #E6111E",
"2+	c #E3101B",
"3+	c #E10F1A",
"4+	c #E00E19",
"5+	c #DE0D18",
"6+	c #DD0D17",
"7+	c #B70A12",
"8+	c #650509",
"9+	c #F41F2C",
"0+	c #E91420",
"a+	c #E4101D",
"b+	c #E2101B",
"c+	c #E00E1A",
"d+	c #DF0E19",
"e+	c #DD0D18",
"f+	c #C50B13",
"g+	c #91080F",
"h+	c #7C070C",
"i+	c #4A0407",
"j+	c #3C0306",
"k+	c #E4111D",
"l+	c #E00F1A",
"m+	c #DF0E1A",
"n+	c #DE0D19",
"o+	c #DC0D17",
"p+	c #D00B15",
"q+	c #B10A11",
"r+	c #A0090F",
"s+	c #8E080E",
"t+	c #79070C",
"u+	c #630509",
"v+	c #480407",
"w+	c #E00F1B",
"x+	c #DE0E19",
"y+	c #DC0D18",
"z+	c #DB0C17",
"A+	c #D80C16",
"B+	c #CA0B14",
"C+	c #BC0A13",
"D+	c #9B090F",
"E+	c #89080E",
"F+	c #75060B",
"G+	c #440407",
"H+	c #DB0D17",
"I+	c #DA0C16",
"J+	c #D10B15",
"K+	c #C30A13",
"L+	c #A60A10",
"M+	c #95080E",
"N+	c #83070D",
"O+	c #70060B",
"P+	c #590408",
"Q+	c #3F0406",
"R+	c #D50B15",
"S+	c #9F090F",
"T+	c #68050A",
"U+	c #520408",
"V+	c #3B0306",
"W+	c #D60C15",
"X+	c #B30A12",
"Y+	c #A50910",
"Z+	c #96090E",
"`+	c #86070D",
" @	c #74060B",
".@	c #600509",
"+@	c #A90911",
"@@	c #8C080D",
"#@	c #6A060A",
"$@	c #570408",
"%@	c #400406",
"&@	c #AA0911",
"*@	c #9D090F",
"=@	c #90080E",
"-@	c #81070D",
";@	c #71060B",
">@	c #5F0509",
",@	c #4B0408",
"'@	c #92080E",
")@	c #84070D",
"!@	c #64050A",
"~@	c #76060C",
"{@	c #440307",
"]@	c #470307",
"^@	c #3A0306",
"                                                                ",
"                      . + @ # @ $ % & * =                       ",
"                  - ; > , ' ) ! ~ { ] - ^ / (                   ",
"              _ : < [ } | | 1 2 3 4 ! 5 6 7 8 9 0               ",
"            a b c d e f g h i j d k 3 l m n o p q r             ",
"          s t u v w x y z A B C D E F G H I J K & L M           ",
"        a t N O P Q R S T U V W X Y Z | `  ...+.@.#.$.%.        ",
"      _ b u O &.*.=.-.;.>.,.'.).!.~.{.].^./.(._.@ :.<.[.}.      ",
"      : c v P *.|.1.2.3.4.5.6.7.8.9.0.a.b.G c.d.+.e.f.g.h.      ",
"    - < d w Q =.1.i.j.k.l.m.n.o.p.q.r.s.t.u.t v.w.x.y.q z.A.    ",
"    ; [ e x R -.2.j.B.C.D.E.F.G.H.I.J.K.L.M./.N._.O.P.Q.R.A.    ",
"  . > } f y S ;.3.k.C.S.T.U.V.W.X.Y.Z.`. +.+++, @+#+$+%+&+*+=+  ",
"  + , | g z T >.4.l.D.T.-+;+>+,+'+)+!+~+{+]+++^+@+/+(+_+:+<+=+  ",
"  @ ' | h A U ,.5.m.E.U.;+[+}+|+1+2+3+4+5+6+/.! 7+/+(+_+8+M =+  ",
"  # ) 1 i B V '.6.n.F.V.>+}+9+0+a+b+c+d+e+` t f+_.@ g+h+8+i+j+  ",
"  @ ! 2 j C W ).7.o.G.W.,+|+0+k+b+l+m+n+o+3 p+~ q+r+s+t+u+v+j+  ",
"  $ ~ 3 d D X !.8.p.H.X.'+1+a+b+w+m+x+y+z+A+B+C+6 D+E+F+( G+j+  ",
"  % { 4 k E Y ~.9.q.I.Y.)+2+b+l+m+x+y+H+I+J+K+; L+M+N+O+P+Q+j+  ",
"  & ] ! 3 F Z {.0.r.J.Z.!+3+c+m+x+y+H+I+R+, C+] S+s+h+T+U+j+V+  ",
"  * - 5 l G | ].a.s.K.`.~+4+d+n+y+H+I+W+) m X+Y+Z+`+ @.@i+V+V+  ",
"  = ^ 6 m H ` ^.b.t.L. +{+5+e+o+z+I+R+) I ; +@D+@@h+#@$@%@V+V+  ",
"    / 7 n I  ./.G u.M..+]+6+` 3 A+J+, m ; &@*@=@-@;@>@,@V+V+    ",
"    ( 8 o J ..(.c.t /.++++/.t p+B+K+C+X++@*@'@)@* !@U+A.V+V+    ",
"      9 p K +._.d.v.N., ^+! f+~ C+; ] Y+D+=@)@~@T+$@{@V+V+      ",
"      0 q & @.@ +.w._.@+@+7+_.q+6 L+S+Z+@@-@* T+P+]@V+V+^@      ",
"        r L #.:.e.x.O.#+/+/+@ r+D+M+s+`+h+;@!@$@]@V+V+^@        ",
"          M $.<.f.y.P.$+(+(+g+s+E+N+h+ @#@>@U+{@V+V+^@          ",
"            %.[.g.q Q.%+_+_+h+t+F+O+T+.@$@,@A.V+V+^@            ",
"              }.h.z.R.&+:+8+8+u+( P+U+i+%@V+V+V+^@              ",
"                  A.A.*+<+M i+v+G+Q+j+V+V+V+V+                  ",
"                      =+=+=+j+j+j+j+V+V+V+                      ",
"                                                                "};
