/* XPM */
static char * yellow_ball_xpm[] = {
"32 32 300 2",
"  	c None",
". 	c #6B6E07",
"+ 	c #7C7F08",
"@ 	c #838509",
"# 	c #848809",
"$ 	c #828609",
"% 	c #7F8109",
"& 	c #777A08",
"* 	c #6D7007",
"= 	c #5E6106",
"- 	c #474A05",
"; 	c #818409",
"> 	c #93970A",
", 	c #9DA10B",
"' 	c #A2A60B",
") 	c #A4A90B",
"! 	c #A4A80B",
"~ 	c #A1A50B",
"{ 	c #9CA00B",
"] 	c #95980B",
"^ 	c #8C900A",
"/ 	c #737708",
"( 	c #636507",
"_ 	c #4B4D05",
": 	c #7B7E09",
"< 	c #989C0B",
"[ 	c #A8AC0C",
"} 	c #B2B60D",
"| 	c #B7BC0D",
"1 	c #BABF0D",
"2 	c #B9BE0D",
"3 	c #B5BA0D",
"4 	c #B0B40D",
"5 	c #A9AD0C",
"6 	c #A1A50C",
"7 	c #969A0B",
"8 	c #8A8E0A",
"9 	c #7D7F09",
"0 	c #6B6F08",
"a 	c #575A06",
"b 	c #393A04",
"c 	c #8B8F0A",
"d 	c #A5AA0C",
"e 	c #B5BA0E",
"f 	c #C0C50F",
"g 	c #C6CC0F",
"h 	c #CBD00F",
"i 	c #CCD10E",
"j 	c #CBD10E",
"k 	c #C9CE0E",
"l 	c #C5CA0E",
"m 	c #BFC50E",
"n 	c #B8BE0D",
"o 	c #B0B50C",
"p 	c #A6AA0B",
"q 	c #9B9F0A",
"r 	c #8E9209",
"s 	c #808208",
"t 	c #6F7107",
"u 	c #595C06",
"v 	c #3E4004",
"w 	c #8F930A",
"x 	c #ACB00D",
"y 	c #BDC210",
"z 	c #CAD011",
"A 	c #D3D911",
"B 	c #D8DE12",
"C 	c #DAE011",
"D 	c #DAE010",
"E 	c #D8DE10",
"F 	c #D5DB0F",
"G 	c #D1D60F",
"H 	c #C4CA0D",
"I 	c #BCC10D",
"J 	c #B3B70C",
"K 	c #A7AC0B",
"L 	c #9BA00B",
"M 	c #8D9109",
"N 	c #7E8108",
"O 	c #6C6F07",
"P 	c #575906",
"Q 	c #3B3D04",
"R 	c #C1C610",
"S 	c #D0D513",
"T 	c #DCE115",
"U 	c #E4EA17",
"V 	c #E8EE18",
"W 	c #E9EF16",
"X 	c #E8ED14",
"Y 	c #E4EA12",
"Z 	c #DFE610",
"` 	c #D5DA0F",
" .	c #CED30E",
"..	c #C6CA0E",
"+.	c #BCC00D",
"@.	c #B1B60C",
"#.	c #A5AA0B",
"$.	c #989C0A",
"%.	c #898D09",
"&.	c #797C08",
"*.	c #666A07",
"=.	c #515206",
"-.	c #333503",
";.	c #DFE417",
">.	c #ECF21C",
",.	c #F6FC20",
"'.	c #FBFF23",
").	c #FBFF21",
"!.	c #F6FC1C",
"~.	c #F0F517",
"{.	c #E8EF13",
"].	c #E2E810",
"^.	c #DBE20F",
"/.	c #D4DA0F",
"(.	c #C3C80E",
"_.	c #B9BD0D",
":.	c #ADB10C",
"<.	c #A0A40B",
"[.	c #92960A",
"}.	c #717407",
"|.	c #5D6006",
"1.	c #454705",
"2.	c #323403",
"3.	c #FCFF25",
"4.	c #FFFF2F",
"5.	c #FFFF35",
"6.	c #FFFF2C",
"7.	c #FFFF20",
"8.	c #F2F517",
"9.	c #E9EE12",
"0.	c #E1E710",
"a.	c #D9DF0F",
"b.	c #D1D70F",
"c.	c #C8CD0E",
"d.	c #BDC30D",
"e.	c #B2B80D",
"f.	c #A6AB0C",
"g.	c #999C0B",
"h.	c #8A8D09",
"i.	c #797D08",
"j.	c #676A07",
"k.	c #515405",
"l.	c #363804",
"m.	c #FFFF41",
"n.	c #FFFF52",
"o.	c #FFFF56",
"p.	c #FFFF4B",
"q.	c #FCFC21",
"r.	c #EFF015",
"s.	c #E5EA11",
"t.	c #DDE210",
"u.	c #C2C60E",
"v.	c #B7BB0D",
"w.	c #AAAE0C",
"x.	c #8E930A",
"y.	c #7F8209",
"z.	c #6E7007",
"A.	c #424405",
"B.	c #323303",
"C.	c #FFFF6F",
"D.	c #FFFF80",
"E.	c #FFFF75",
"F.	c #FFFF53",
"G.	c #F3F31A",
"H.	c #E7EA12",
"I.	c #DFE510",
"J.	c #D7DC0F",
"K.	c #CED30F",
"L.	c #C4C90E",
"M.	c #92950A",
"N.	c #727508",
"O.	c #5F6106",
"P.	c #494B05",
"Q.	c #313303",
"R.	c #FFFF9F",
"S.	c #FFFF9C",
"T.	c #FFFF73",
"U.	c #FFFF40",
"V.	c #F7F71F",
"W.	c #E9EA12",
"X.	c #D7DD0F",
"Y.	c #CFD40F",
"Z.	c #C4CA0E",
"`.	c #B9BF0D",
" +	c #AFB30C",
".+	c #94970A",
"++	c #848909",
"@+	c #747808",
"#+	c #4E5005",
"$+	c #353604",
"%+	c #313203",
"&+	c #FFFFA4",
"*+	c #FFFF7F",
"=+	c #FFFF47",
"-+	c #F8F821",
";+	c #E9E913",
">+	c #DFE410",
",+	c #D6DC0F",
"'+	c #AEB30C",
")+	c #A1A60C",
"!+	c #94980B",
"~+	c #868909",
"{+	c #757908",
"]+	c #656707",
"^+	c #515305",
"/+	c #393B04",
"(+	c #FFFF67",
"_+	c #FFFF3C",
":+	c #F3F31E",
"<+	c #E6E712",
"[+	c #CCD20E",
"}+	c #C2C80D",
"|+	c #B8BD0D",
"1+	c #93970B",
"2+	c #858809",
"3+	c #767908",
"4+	c #646807",
"5+	c #303203",
"6+	c #FCFC26",
"7+	c #EBEB17",
"8+	c #E1E411",
"9+	c #DADF10",
"0+	c #D2D70E",
"a+	c #C0C50D",
"b+	c #B6BA0C",
"c+	c #AAAF0C",
"d+	c #9EA20B",
"e+	c #91950A",
"f+	c #838709",
"g+	c #646607",
"h+	c #E3E511",
"i+	c #DCE210",
"j+	c #CDD30E",
"k+	c #C5CA0D",
"l+	c #B2B70C",
"m+	c #A7AB0B",
"n+	c #9C9F0B",
"o+	c #8F920A",
"p+	c #808409",
"q+	c #717508",
"r+	c #626407",
"s+	c #4F5105",
"t+	c #3A3C04",
"u+	c #D0D50E",
"v+	c #C1C60D",
"w+	c #B8BC0C",
"x+	c #ADB20C",
"y+	c #A3A70B",
"z+	c #979B0A",
"A+	c #8B8E0A",
"B+	c #7D8009",
"C+	c #6E7108",
"D+	c #5E6006",
"E+	c #4C4E05",
"F+	c #373804",
"G+	c #303103",
"H+	c #CACF0E",
"I+	c #B1B70C",
"J+	c #A8AC0B",
"K+	c #9DA20B",
"L+	c #86890A",
"M+	c #787B09",
"N+	c #6A6C07",
"O+	c #484904",
"P+	c #333404",
"Q+	c #BBC00D",
"R+	c #B3B80C",
"S+	c #ABB00C",
"T+	c #A1A60B",
"U+	c #8C8F0A",
"V+	c #7F8309",
"W+	c #636707",
"X+	c #545605",
"Y+	c #424304",
"Z+	c #2F3103",
"`+	c #ACB00C",
" @	c #9A9E0A",
".@	c #90930A",
"+@	c #797C09",
"@@	c #6C6E08",
"#@	c #4D4F05",
"$@	c #888B09",
"%@	c #717408",
"&@	c #555806",
"*@	c #464704",
"=@	c #747708",
"-@	c #686A07",
";@	c #5B5E06",
">@	c #4C4F05",
",@	c #3C3E04",
"'@	c #757808",
")@	c #6A6D07",
"!@	c #424404",
"~@	c #2F3003",
"{@	c #5F6207",
"]@	c #535505",
"^@	c #464804",
"/@	c #373803",
"(@	c #474904",
"_@	c #393B03",
"                                                                ",
"                      . + @ # $ % & * = -                       ",
"                  ; > , ' ) ! ~ { ] ^ ; / ( _                   ",
"              : < [ } | 1 1 2 3 4 5 6 7 8 9 0 a b               ",
"            c d e f g h i j k l m n o p q r s t u v             ",
"          w x y z A B C D E F G j H I J K L M N O P Q           ",
"        c x R S T U V W X Y Z D `  ...+.@.#.$.%.&.*.=.-.        ",
"      : d y S ;.>.,.'.).!.~.{.].^./.i (._.:.<.[.$ }.|.1.2.      ",
"      < e z T >.3.4.5.5.6.7.8.9.0.a.b.c.d.e.f.g.h.i.j.k.l.      ",
"    ; [ f A U ,.4.m.n.o.p.5.q.r.s.t.` j u.v.w., x.y.z.u A.B.    ",
"    > } g B V '.5.n.C.D.E.F.4.G.H.I.J.K.L.2 :.<.M.$ N.O.P.Q.    ",
"  . , | h C W ).5.o.D.R.S.T.U.V.W.Z X.Y.Z.`. +6 .+++@+( #+$+%+  ",
"  + ' 1 i D X !.6.p.E.S.&+*+=+-+;+>+,+K.Z.`.'+)+!+~+{+]+^+/+%+  ",
"  @ ) 1 j E Y ~.7.5.F.T.*+(+_+:+<+t.` [+}+|+:.~ 1+2+3+4+k.Q 5+  ",
"  # ! 2 k F Z {.8.q.4.U.=+_+6+7+8+9+0+k a+b+c+d+e+f+@+g+^+Q 5+  ",
"  $ ~ 3 l G D ].9.r.G.V.-+:+7+h+i+F j+k+I l+m+n+o+p+q+r+s+t+5+  ",
"  % { 4 m j ` ^.0.s.H.W.;+<+8+i+,+u+k v+w+x+y+z+A+B+C+D+E+F+G+  ",
"  & ] 5 n H  ./.a.t.I.Z >+t.9+F u+H+}+1 I+J+K+[.L+M+N+u O+P+G+  ",
"  * ^ 6 o I ..i b.` J.X.,+` 0+j+k }+Q+R+S+T+z+U+V+N.W+X+Y+G+Z+  ",
"  = ; 7 p J +.(.c.j K.Y.K.[+k k+v+1 R+`+!  @.@+++@@@|.#@Q Z+Z+  ",
"  - / 8 q K @._.d.u.L.Z.Z.}+a+I w+I+S+! q [.$@B+%@g+&@*@P+Z+Z+  ",
"    ( 9 r L #.:.e.v.2 `.`.|+b+l+x+J+T+ @[.%.y.=@-@;@>@,@Z+Z+    ",
"    _ 0 s M $.<.f.w.:. +'+:.c+m+y+K+z+.@$@y.'@)@= ^+!@B.Z+~@    ",
"      a t N %.[.g., <.6 )+~ d+n+z+[.U+++B+=@)@{@]@^@/@Z+~@      ",
"      b u O &.$ h.x.M..+!+1+e+o+A+L+V++@%@-@= ]@(@_@Z+~@~@      ",
"        v P *.}.i.y.$ ++~+2+f+p+B+M+N.@@g+;@^+^@_@Z+~@~@        ",
"          Q =.|.j.z.N.@+{+3+@+q+C+N+W+|.&@>@!@/@Z+~@~@          ",
"            -.1.k.u O.( ]+4+g+r+D+u X+#@*@,@B.Z+~@~@            ",
"              2.l.A.P.#+^+k.^+s+E+O+Y+Q P+Z+Z+~@~@              ",
"                  B.Q.$+/+Q Q t+F+P+G+Z+Z+Z+~@                  ",
"                      %+%+5+5+5+G+G+Z+Z+Z+                      ",
"                                                                "};
