/* XPM */
static char * blue_ball_xpm[] = {
"32 32 169 2",
"  	c None",
". 	c #052B88",
"+ 	c #06329E",
"@ 	c #0735A8",
"# 	c #0736AB",
"$ 	c #0735A6",
"% 	c #062E91",
"& 	c #05287F",
"* 	c #041F62",
"= 	c #0633A1",
"- 	c #073BB9",
"; 	c #083FC7",
"> 	c #0842CF",
", 	c #0843D4",
"' 	c #0842D2",
") 	c #0841CD",
"! 	c #083FC6",
"~ 	c #073BBB",
"{ 	c #0737AE",
"] 	c #06329D",
"^ 	c #052B87",
"/ 	c #042169",
"( 	c #063099",
"_ 	c #073CBE",
": 	c #0843D3",
"< 	c #0947E0",
"[ 	c #094AE9",
"} 	c #094CEF",
"| 	c #094CF1",
"1 	c #094BEE",
"2 	c #0947E1",
"3 	c #0944D8",
"4 	c #0840CC",
"5 	c #073CBD",
"6 	c #062F96",
"7 	c #05277A",
"8 	c #031950",
"9 	c #0736AC",
"0 	c #0948E3",
"a 	c #0A4CF1",
"b 	c #0A50FB",
"c 	c #0A52FF",
"d 	c #0A53FF",
"e 	c #0A50FE",
"f 	c #0A4EF7",
"g 	c #094BED",
"h 	c #0947E2",
"i 	c #083EC4",
"j 	c #0738B1",
"k 	c #06319B",
"l 	c #041C59",
"m 	c #094AEB",
"n 	c #0A50FC",
"o 	c #0B56FF",
"p 	c #0B58FF",
"q 	c #0B59FF",
"r 	c #0B57FF",
"s 	c #0A4DF3",
"t 	c #0949E6",
"u 	c #0844D7",
"v 	c #083EC6",
"w 	c #06319A",
"x 	c #05277D",
"y 	c #031B55",
"z 	c #0A51FF",
"A 	c #0B5BFF",
"B 	c #0C5DFF",
"C 	c #0B5CFF",
"D 	c #0B5AFF",
"E 	c #0B55FF",
"F 	c #0A4DF4",
"G 	c #0843D5",
"H 	c #083DC2",
"I 	c #0737AD",
"J 	c #062F93",
"K 	c #052574",
"L 	c #03184D",
"M 	c #0C5FFF",
"N 	c #0C60FF",
"O 	c #0C61FF",
"P 	c #0634A3",
"Q 	c #042066",
"R 	c #042064",
"S 	c #0C5EFF",
"T 	c #0C62FF",
"U 	c #0C63FF",
"V 	c #0C64FF",
"W 	c #0A54FF",
"X 	c #0A4FFA",
"Y 	c #0945D9",
"Z 	c #083EC5",
"` 	c #0737AF",
" .	c #052678",
"..	c #031A51",
"+.	c #0D65FF",
"@.	c #0D66FF",
"#.	c #0A4CF2",
"$.	c #073AB8",
"%.	c #0633A0",
"&.	c #052A84",
"*.	c #042065",
"=.	c #0D67FF",
"-.	c #0A4EF6",
";.	c #083CBE",
">.	c #0735A7",
",.	c #062D8D",
"'.	c #04236E",
").	c #0D68FF",
"!.	c #0A4FF9",
"~.	c #062E93",
"{.	c #052575",
"].	c #052982",
"^.	c #094AEA",
"/.	c #052679",
"(.	c #031C57",
"_.	c #042370",
":.	c #063097",
"<.	c #05277B",
"[.	c #041D5A",
"}.	c #042168",
"|.	c #0A4EF8",
"1.	c #0949E8",
"2.	c #0844D6",
"3.	c #083EC3",
"4.	c #041D5B",
"5.	c #0C5CFF",
"6.	c #0948E4",
"7.	c #083DC0",
"8.	c #0A50FD",
"9.	c #0947DF",
"0.	c #0841CE",
"a.	c #062D8F",
"b.	c #083FC8",
"c.	c #0739B5",
"d.	c #052B89",
"e.	c #03194F",
"f.	c #0A4FFB",
"g.	c #0842D1",
"h.	c #063098",
"i.	c #052981",
"j.	c #0948E5",
"k.	c #073AB6",
"l.	c #0634A4",
"m.	c #052677",
"n.	c #041D5C",
"o.	c #052C8A",
"p.	c #0945DA",
"q.	c #073CBC",
"r.	c #052A83",
"s.	c #04226C",
"t.	c #083DBF",
"u.	c #0738B0",
"v.	c #06329F",
"w.	c #062C8C",
"x.	c #052576",
"y.	c #041E5E",
"z.	c #0738B2",
"A.	c #0633A2",
"B.	c #05287D",
"C.	c #042167",
"D.	c #03194E",
"E.	c #062F95",
"F.	c #062E92",
"G.	c #04226D",
"H.	c #031B56",
"I.	c #04236F",
"J.	c #041C5A",
"K.	c #052473",
"L.	c #031A52",
"                                                                ",
"                      . + @ # # $ + % & *                       ",
"                  = - ; > , , ' ) ! ~ { ] ^ /                   ",
"              ( _ : < [ } | | 1 [ 2 3 4 5 # 6 7 8               ",
"            9 ) 0 a b c d d d c e f g h , i j k & l             ",
"          j , m n d o p q q p r o d e s t u v j w x y           ",
"        9 , 1 z o q A B B B B C D p E z F t G H I J K L         ",
"      ( ) m z o D B M N O O N M B A p E z a 2 > ~ P . Q R       ",
"      _ 0 n o D S N T U V V U T N S A r W X m Y Z ` 6  ...      ",
"    = : a d q B N U +.@.@.@.+.V T N B q o z #.< ) $.%.&.* *.    ",
"    - < b o A M T +.@.=.=.=.@.+.U O S A r d -.t : ;.>.,.'...    ",
"  . ; [ c p B N U @.=.).).).=.@.V T M A p W !.[ u H 9 ~.{.8 ].  ",
"  + > } d q B O V @.=.).).).=.@.V T M C p W X ^.3 i { 6 /.(._.  ",
"  @ , | d q B O V @.=.).).).=.@.V O M A p W X ^.3 Z ` :.<.[.}.  ",
"  # , | d p B N U +.@.=.=.=.@.+.U O S A r d |.1.2.3.{ 6 <.4.*.  ",
"  # ' 1 c r C M T V +.@.@.@.+.U O M 5.q o c F 6.: 7.# J /.l *.  ",
"  $ ) [ e o D B N T U V V V U O N B A p W 8.} 9.0.~ $ a.K y /   ",
"  + ! 2 f d p A S N O T T O O M B A p E c -.1.Y b.c.%.d.'.e._.  ",
"  % ~ 3 g e E p A B S M M M S 5.A p o d f.1 < g.7.I h.i.Q 8 7   ",
"  & { 4 h s z E r q A A C A A q p E d n | j.u ; k.l.a.m.n.4.o.  ",
"  * ] 5 , t F z W o r p p p r o W c f.| t p.4 q.# ( r.s.8 / '.  ",
"    ^ # i u t a X z d W W W d c 8.-.1 j.p.) t.u.v.w.x.y.y <.    ",
"    / 6 j v G 2 m #.-.!.X X |.F } 1.< u 4 t.z.A.% B.C.D.C.E.    ",
"      7 k j H > Y < t [ ^.^.1.6.9.Y g.; q.u.A.F.i.G.H.4.&       ",
"      8 & w I ~ Z ) : u 3 3 2.: 0.b.7.k.# v.% i.I.J.y K.i.      ",
"        l x J P ` $.;.H i Z 3.7.~ c.I l.( w.B.G.J.L.'.i.        ",
"          y K . 6 %.>.9 { ` { # $ %.h.a.r.x.C.H.y '.i.          ",
"            L Q  .&.,.~.6 :.6 J a.d.i.m.s.y.D.4.K.i.            ",
"              R ..* '.{./.<.<./.K '.Q n.8 y C.& i.              ",
"                  *...8 (.[.4.l y e.8 4./ <.'.                  ",
"                      ]._.}.*.*./ _.7 o.'.                      ",
"                                                                "};
