/* XPM */
static char * green_ball_xpm[] = {
"32 32 146 2",
"  	c None",
". 	c #128308",
"+ 	c #15980A",
"@ 	c #17A10A",
"# 	c #17A50A",
"$ 	c #17A40A",
"% 	c #16A00A",
"& 	c #148C09",
"* 	c #117A08",
"= 	c #0D5E06",
"- 	c #169B0A",
"; 	c #19B20B",
"> 	c #1BC00C",
", 	c #1CC80D",
"' 	c #1DCC0D",
") 	c #1CCA0D",
"! 	c #1CC60C",
"~ 	c #1BBE0C",
"{ 	c #19B40B",
"] 	c #17A70B",
"^ 	c #15970A",
"/ 	c #128208",
"( 	c #0E6506",
"_ 	c #159309",
": 	c #1AB70C",
"< 	c #1CCB0D",
"[ 	c #1ED80E",
"} 	c #1FE10E",
"| 	c #20E60F",
"1 	c #20E80F",
"2 	c #20E50E",
"3 	c #1FE00E",
"4 	c #1ED90E",
"5 	c #1DD00D",
"6 	c #1BC40C",
"7 	c #19B60B",
"8 	c #149009",
"9 	c #107607",
"0 	c #0B4D05",
"a 	c #1FDA0E",
"b 	c #21E80F",
"c 	c #22F20F",
"d 	c #23F810",
"e 	c #23FC10",
"f 	c #24FE10",
"g 	c #23FD10",
"h 	c #23F910",
"i 	c #22F40F",
"j 	c #21ED0F",
"k 	c #20E40E",
"l 	c #1ABD0C",
"m 	c #18AB0B",
"n 	c #159509",
"o 	c #0C5605",
"p 	c #18AA0B",
"q 	c #20E20E",
"r 	c #25FF11",
"s 	c #26FF11",
"t 	c #25FF10",
"u 	c #22F50F",
"v 	c #21EA0F",
"w 	c #1FDD0E",
"x 	c #1DCF0D",
"y 	c #159409",
"z 	c #117808",
"A 	c #0C5205",
"B 	c #23F710",
"C 	c #24FF10",
"D 	c #27FF12",
"E 	c #28FF12",
"F 	c #21EB0F",
"G 	c #1DCD0D",
"H 	c #1ABB0C",
"I 	c #17A60A",
"J 	c #148E09",
"K 	c #107007",
"L 	c #0A4805",
"M 	c #29FF12",
"N 	c #29FF13",
"O 	c #27FF11",
"P 	c #22F610",
"Q 	c #1CC70D",
"R 	c #169D0A",
"S 	c #0E6206",
"T 	c #2AFF13",
"U 	c #2BFF13",
"V 	c #22F10F",
"W 	c #1DD10D",
"X 	c #18A90B",
"Y 	c #107307",
"Z 	c #0B4E05",
"` 	c #2BFF14",
" .	c #19B10B",
"..	c #169A0A",
"+.	c #127F08",
"@.	c #2CFF14",
"#.	c #138709",
"$.	c #0F6907",
"%.	c #22F00F",
"&.	c #1DCE0D",
"*.	c #148D09",
"=.	c #107107",
"-.	c #2DFF14",
";.	c #20E10E",
">.	c #18A80B",
",.	c #107507",
"'.	c #0C5405",
").	c #149109",
"!.	c #117708",
"~.	c #0C5706",
"{.	c #21EE0F",
"].	c #1FDF0E",
"^.	c #1ABC0C",
"/.	c #117607",
"(.	c #0C5806",
"_.	c #1FDC0E",
":.	c #1AB90C",
"<.	c #107407",
"[.	c #22F30F",
"}.	c #1ED70E",
"|.	c #1CC60D",
"1.	c #138A09",
"2.	c #0B5205",
"3.	c #18AE0B",
"4.	c #128408",
"5.	c #0F6A07",
"6.	c #0B4C05",
"7.	c #1CC90D",
"8.	c #1AB80C",
"9.	c #17A60B",
"0.	c #159209",
"a.	c #117C08",
"b.	c #19AF0B",
"c.	c #138909",
"d.	c #0C5906",
"e.	c #19B50B",
"f.	c #0E6807",
"g.	c #15990A",
"h.	c #107207",
"i.	c #0D5A06",
"j.	c #169C0A",
"k.	c #148B09",
"l.	c #117908",
"m.	c #0E6306",
"n.	c #0A4B05",
"o.	c #0C5305",
"                                                                ",
"                      . + @ # $ % + & * =                       ",
"                  - ; > , ' ' ) ! ~ { ] ^ / (                   ",
"              _ : < [ } | 1 1 2 3 4 5 6 7 # 8 9 0               ",
"            # ! a b c d e f g h i j k 4 ' l m n * o             ",
"          p ' q c f r r s s s r t f u v w x ~ m y z A           ",
"        # ' 2 B C s D D E E E D s r C B F w G H I J K L         ",
"      _ ! q B r s E M N N N N M E O s C P b 4 Q { R . S L       ",
"      : a c C s E N T T U U T T M E O r f V q W ~ X 8 Y Z       ",
"    - < b f s E N T U ` ` ` U T T M E s C B b [ !  ...+.= L     ",
"    ; [ c r D M T U @.@.@.@.@.U T N E O r e j w < : @ #.$.L     ",
"  . > } d r D N T ` @.@.@.@.@.` U T E D r f %.3 &.H # *.=.0 L   ",
"  + , | e s E N U ` @.@.-.@.@.` U T E D r C V ;.5 l >.8 ,.'.L   ",
"  @ ' 1 f s E N U ` @.@.@.@.@.` T N E D r f %.} 5 l >.).!.~.L   ",
"  # ' 1 g s E N T U @.@.@.@.` U T N E O r e {.].&.^.] 8 /.(.L   ",
"  $ ) 2 h r D M T T U ` ` ` U T T M D s t d F _.< :.$ J <.o L   ",
"  % ! 3 i t s E M T T U U T T T M E O r C [.| }.|.{ % 1.K 2.L   ",
"  + ~ 4 j f r O E M N T T N N M E D s C h j ].5 > 3...4.5.6.L   ",
"  & { 5 k u C s O E E E E E E D O s r e V 2 [ 7.8.9.0.a.S L L   ",
"  * ] 6 4 v B C r s O D D D O s r C e c 1 _.x > b.R c.Y d.L L   ",
"  = ^ 7 ' w F P f C r r r r r t C h V 1 w W 6 e.# _ +.f.0 L L   ",
"    / # l x w b V B e f C f e d [.j 2 _.W ! 8.X g.#.h.i.L L     ",
"    ( 8 m ~ G 4 q b j %.V %.{.F | ].[ x 6 8.m j.k.l.m.n.L L     ",
"      9 n m H Q W [ w 3 ;.} ]._.}.5 7.> e.X j.*.a.$.o.L L       ",
"      0 * y I { ~ ! < &.5 5 &.< |.> 8.b.# g.k.a.5.o L L L       ",
"        o z J R X  .: H l l ^.:.{ 3.9.R _ #.l.$.o L L L         ",
"          A K . 8 ..@ # >.>.] $ % ..0.c.+.h.m.o.L L L           ",
"            L S Y +.#.*.8 ).8 J 1.4.a.Y f.i.n.L L L             ",
"              L Z = $.=.,.!./.<.K 5.S d.0 L L L L               ",
"                  L L 0 '.~.(.o 2.6.L L L L L                   ",
"                      L L L L L L L L L L                       ",
"                                                                "};
