/* XPM */
static char * pink_ball_xpm[] = {
"32 32 177 2",
"  	c None",
". 	c #830747",
"+ 	c #980953",
"@ 	c #A10958",
"# 	c #A5095A",
"$ 	c #A40959",
"% 	c #A00957",
"& 	c #980952",
"* 	c #8C084C",
"= 	c #7A0742",
"- 	c #5E0533",
"; 	c #9B0954",
"> 	c #B20A61",
", 	c #C00B68",
"' 	c #C80B6C",
") 	c #CC0C6F",
"! 	c #CA0C6E",
"~ 	c #C60B6B",
"{ 	c #BE0B67",
"] 	c #B40A62",
"^ 	c #A70A5B",
"/ 	c #970952",
"( 	c #820747",
"_ 	c #650637",
": 	c #930850",
"< 	c #B70A63",
"[ 	c #CB0C6E",
"} 	c #D80C75",
"| 	c #E10D7A",
"1 	c #E60D7D",
"2 	c #E80D7E",
"3 	c #E50D7C",
"4 	c #E00D7A",
"5 	c #D90C76",
"6 	c #D00C71",
"7 	c #C40B6A",
"8 	c #B60A63",
"9 	c #90084E",
"0 	c #760740",
"a 	c #4D042A",
"b 	c #DA0C76",
"c 	c #F20E83",
"d 	c #F80E87",
"e 	c #FC0E89",
"f 	c #FE0E8A",
"g 	c #FD0E89",
"h 	c #F90E88",
"i 	c #F40E85",
"j 	c #ED0E81",
"k 	c #E40D7C",
"l 	c #BD0B67",
"m 	c #AB0A5D",
"n 	c #950851",
"o 	c #7A0743",
"p 	c #56052F",
"q 	c #AA0A5C",
"r 	c #E20D7B",
"s 	c #F20E84",
"t 	c #FF0F8E",
"u 	c #FF0F91",
"v 	c #FF0F93",
"w 	c #FF0F92",
"x 	c #FF0F90",
"y 	c #F50E85",
"z 	c #EA0D7F",
"A 	c #DD0D78",
"B 	c #CF0C70",
"C 	c #940850",
"D 	c #780741",
"E 	c #52052D",
"F 	c #F70E86",
"G 	c #FF0F8D",
"H 	c #FF1097",
"I 	c #FF1099",
"J 	c #FF109A",
"K 	c #FF1098",
"L 	c #FF1095",
"M 	c #FF0F8C",
"N 	c #EB0D80",
"O 	c #CD0C6F",
"P 	c #BB0B66",
"Q 	c #A6095A",
"R 	c #8E084D",
"S 	c #70063D",
"T 	c #480427",
"U 	c #FF0F8F",
"V 	c #FF119D",
"W 	c #FF119F",
"X 	c #FF11A0",
"Y 	c #FF109D",
"Z 	c #FF1096",
"` 	c #F60E86",
" .	c #C70B6C",
"..	c #9D0955",
"+.	c #620635",
"@.	c #FF109B",
"#.	c #FF11A2",
"$.	c #FF11A4",
"%.	c #FF11A5",
"&.	c #F10E83",
"*.	c #D10C71",
"=.	c #A90A5C",
"-.	c #73073F",
";.	c #4E042A",
">.	c #FF11A3",
",.	c #FF11A6",
"'.	c #FF12A8",
").	c #FF12A9",
"!.	c #FF12A7",
"~.	c #FF119E",
"{.	c #FF0F94",
"].	c #B10A60",
"^.	c #9A0954",
"/.	c #7F0745",
"(.	c #FF12AA",
"_.	c #FF12AB",
":.	c #B70A64",
"<.	c #A10957",
"[.	c #87084A",
"}.	c #690639",
"|.	c #FF12AC",
"1.	c #FF11A1",
"2.	c #F00E82",
"3.	c #CE0C70",
"4.	c #8D084D",
"5.	c #71063D",
"6.	c #FF12AD",
"7.	c #FF0F8B",
"8.	c #A80A5B",
"9.	c #75073F",
"0.	c #54052D",
"a.	c #FF109C",
"b.	c #F00E83",
"c.	c #91084F",
"d.	c #770740",
"e.	c #57052F",
"f.	c #EE0E81",
"g.	c #DF0D79",
"h.	c #BC0B66",
"i.	c #580530",
"j.	c #EB0D7F",
"k.	c #DC0D77",
"l.	c #B90B64",
"m.	c #74073F",
"n.	c #F30E84",
"o.	c #D70C75",
"p.	c #C60B6C",
"q.	c #8A084B",
"r.	c #F90E87",
"s.	c #ED0D81",
"t.	c #AE0A5E",
"u.	c #840747",
"v.	c #6A063A",
"w.	c #4C0429",
"x.	c #C90B6D",
"y.	c #B80B64",
"z.	c #920850",
"A.	c #7C0743",
"B.	c #AF0A5F",
"C.	c #89084B",
"D.	c #73073E",
"E.	c #590530",
"F.	c #D10C72",
"G.	c #C40B6B",
"H.	c #B50A63",
"I.	c #680638",
"J.	c #B80A64",
"K.	c #990953",
"L.	c #870849",
"M.	c #72063E",
"N.	c #5A0531",
"O.	c #9C0955",
"P.	c #8B084C",
"Q.	c #790742",
"R.	c #630636",
"S.	c #4B0429",
"T.	c #53052D",
"                                                                ",
"                      . + @ # $ % & * = -                       ",
"                  ; > , ' ) ) ! ~ { ] ^ / ( _                   ",
"              : < [ } | 1 2 2 3 4 5 6 7 8 # 9 0 a               ",
"            # ~ b 2 c d e f g h i j k 5 ) l m n o p             ",
"          q ) r s f t u v v w x t f y z A B { m C D E           ",
"        # ) 3 F G v H I J J J K L u M F N A O P Q R S T         ",
"      : ~ r F U L J V W X X W Y J Z w M ` 2 5  .] ... +.T       ",
"      < b s G L @.W #.$.%.%.$.#.W @.Z x f &.r *.{ =.9 -.;.      ",
"    ; [ 2 f v J W >.,.'.).'.!.%.#.~.I {.G F 2 } ~ ].^./.- T     ",
"    > } c t H V #.,.).(._._.).!.$.X @.Z x e j A [ :.<.[.}.T     ",
"  . , | d u I W $.'.(.|.|.|.(.'.%.1.Y H u f 2.4 3.P # 4.5.a T   ",
"  + ' 1 e v J X %.)._.|.6.|._.'.%.#.Y K u 7.&.| 6 l 8.9 9.0.T   ",
"  @ ) 2 f v J X %.'._.|.|.|.(.'.%.1.a.H u f b.| 6 l 8.c.d.e.T   ",
"  # ) 2 g w J W $.!.).(._.(.).,.>.X @.Z x e f.g.3.h.^ 9 0 i.T   ",
"  $ ! 3 h x K Y #.%.!.'.'.'.,.$.1.V I {.t d j.k.[ l.$ R m.p T   ",
"  % ~ 4 i t L J W #.$.%.%.%.>.1.~.J Z u 7.n.1 o.p.] % q.S E T   ",
"  & { 5 j f u Z @.~.X 1.#.1.X V J H w G r.s.g.6 , t.^.u.v.w.T   ",
"  * ] 6 k y M w Z I @.Y Y a.@.I Z w t e &.3 } x.y.Q z.A.+.T T   ",
"  = ^ 7 5 z F M x {.Z H K H Z {.u G e s 2 k.B , B...C.D.E.T T   ",
"  - / 8 ) A N ` f G x u u u x t 7.r.&.2 A F.G.H.# : /.I.a T T   ",
"    ( # l B A 2 &.F e f 7.f e d n.s.3 k.F.~ J.=.K.L.M.N.T T     ",
"    _ 9 m { O 5 r 2 j 2.&.b.f.j.1 g.} B G.J.m O.P.Q.R.S.T T     ",
"      0 n m P  .*.} A 4 | | g.k.o.6 x., H.=.O.4.A.}.T.T T       ",
"      a o C Q ] { ~ [ 3.6 6 3.[ p., y.B.# K.P.A.v.p T T T       ",
"        p D R ..=.].:.P l l h.l.] t.Q ..: L.Q.}.p T T T         ",
"          E S . 9 ^.<.# 8.8.^ $ % ^.z.C./.M.R.T.T T T           ",
"            T +.-./.[.4.9 c.9 R q.u.A.D.I.N.S.T T T             ",
"              T ;.- }.5.9.d.0 m.S v.+.E.a T T T T               ",
"                  T T a 0.e.i.p E w.T T T T T                   ",
"                      T T T T T T T T T T                       ",
"                                                                "};
