/* XPM */
static char * purple_ball_xpm[] = {
"32 32 178 2",
"  	c None",
". 	c #4A0683",
"+ 	c #560798",
"@ 	c #5B07A1",
"# 	c #5D07A5",
"$ 	c #5D07A4",
"% 	c #5A07A0",
"& 	c #4F068C",
"* 	c #45057A",
"= 	c #35045E",
"- 	c #58079B",
"; 	c #6508B2",
"> 	c #6C09C0",
", 	c #7109C8",
"' 	c #7309CC",
") 	c #7209CA",
"! 	c #6F09C6",
"~ 	c #6B08BE",
"{ 	c #6608B4",
"] 	c #5E07A7",
"^ 	c #550797",
"/ 	c #490682",
"( 	c #390465",
"_ 	c #530793",
": 	c #6708B7",
"< 	c #7209CB",
"[ 	c #7A0AD8",
"} 	c #7F0AE1",
"| 	c #820AE6",
"1 	c #830AE8",
"2 	c #810AE5",
"3 	c #7E0AE0",
"4 	c #7A0AD9",
"5 	c #7509D0",
"6 	c #6F09C4",
"7 	c #6708B6",
"8 	c #510690",
"9 	c #420576",
"0 	c #2C034D",
"a 	c #7009C6",
"b 	c #7B0ADA",
"c 	c #890BF2",
"d 	c #8C0BF8",
"e 	c #8E0BFC",
"f 	c #8F0BFE",
"g 	c #8F0BFD",
"h 	c #8D0BF9",
"i 	c #8A0BF4",
"j 	c #860BED",
"k 	c #810AE4",
"l 	c #7B0AD9",
"m 	c #6B08BD",
"n 	c #6008AB",
"o 	c #540795",
"p 	c #300456",
"q 	c #6008AA",
"r 	c #800AE2",
"s 	c #940CFF",
"t 	c #970CFF",
"u 	c #980CFF",
"v 	c #990CFF",
"w 	c #960CFF",
"x 	c #930CFF",
"y 	c #8A0BF5",
"z 	c #840AEA",
"A 	c #7D0ADD",
"B 	c #7509CF",
"C 	c #530794",
"D 	c #440578",
"E 	c #2E0452",
"F 	c #8B0BF7",
"G 	c #9D0CFF",
"H 	c #9F0DFF",
"I 	c #A00DFF",
"J 	c #9A0CFF",
"K 	c #910BFF",
"L 	c #8C0BF7",
"M 	c #850AEB",
"N 	c #7409CD",
"O 	c #6908BB",
"P 	c #5E07A6",
"Q 	c #50068E",
"R 	c #3F0570",
"S 	c #290348",
"T 	c #9B0CFF",
"U 	c #A30DFF",
"V 	c #A60DFF",
"W 	c #A70DFF",
"X 	c #A50DFF",
"Y 	c #9C0CFF",
"Z 	c #8B0BF6",
"` 	c #7009C7",
" .	c #6508B4",
"..	c #59079D",
"+.	c #370462",
"@.	c #A10DFF",
"#.	c #A90DFF",
"$.	c #AB0DFF",
"%.	c #AC0EFF",
"&.	c #AA0DFF",
"*.	c #A80DFF",
"=.	c #880BF1",
"-.	c #7F0AE2",
";.	c #7609D1",
">.	c #5F07A9",
",.	c #410573",
"'.	c #2C034E",
").	c #AD0EFF",
"!.	c #AE0EFF",
"~.	c #AF0EFF",
"{.	c #A40DFF",
"].	c #6408B1",
"^.	c #57079A",
"/.	c #48067F",
"(.	c #B10EFF",
"_.	c #B20EFF",
":.	c #B00EFF",
"<.	c #950CFF",
"[.	c #7309CB",
"}.	c #4C0687",
"|.	c #3B0569",
"1.	c #B30EFF",
"2.	c #870BF0",
"3.	c #7509CE",
"4.	c #6A08BB",
"5.	c #50068D",
"6.	c #400571",
"7.	c #900BFF",
"8.	c #5F07A8",
"9.	c #420575",
"0.	c #2F0454",
"a.	c #A20DFF",
"b.	c #880BF0",
"c.	c #520691",
"d.	c #430577",
"e.	c #310457",
"f.	c #860BEE",
"g.	c #7E0ADF",
"h.	c #7409CE",
"i.	c #6A08BC",
"j.	c #430576",
"k.	c #310458",
"l.	c #9F0CFF",
"m.	c #840AEB",
"n.	c #7C0ADC",
"o.	c #6808B9",
"p.	c #420574",
"q.	c #310456",
"r.	c #890BF3",
"s.	c #790AD7",
"t.	c #4E068A",
"u.	c #8C0BF9",
"v.	c #7609D0",
"w.	c #6208AE",
"x.	c #4A0684",
"y.	c #3C056A",
"z.	c #2B034C",
"A.	c #7109C9",
"B.	c #6808B8",
"C.	c #530792",
"D.	c #46067C",
"E.	c #6308AF",
"F.	c #4D0689",
"G.	c #320459",
"H.	c #6608B5",
"I.	c #47067F",
"J.	c #3A0568",
"K.	c #2B034D",
"L.	c #6008A9",
"M.	c #560799",
"N.	c #400572",
"O.	c #33045A",
"P.	c #58079C",
"Q.	c #4F068B",
"R.	c #440579",
"S.	c #380463",
"T.	c #2A034B",
"U.	c #2F0453",
"                                                                ",
"                      . + @ # $ % + & * =                       ",
"                  - ; > , ' ' ) ! ~ { ] ^ / (                   ",
"              _ : < [ } | 1 1 2 3 4 5 6 7 # 8 9 0               ",
"            # a b 1 c d e f g h i j k l ' m n o * p             ",
"          q ' r c f s t u v u w x f y z A B ~ n C D E           ",
"        # ' 2 F x v G H I I H G J w K L M A N O P Q R S         ",
"      _ a r F s T I U V W W X U I Y t K Z 1 4 `  .... +.S       ",
"      : b c x T @.V #.$.%.$.&.*.X @.Y w f =.-.;.~ >.8 ,.'.      ",
"    - < 1 f v I V &.).!.~.~.).$.*.{.H v x F 1 [ a ].^./.= S     ",
"    ; [ c s G U #.).~.(._.(.:.).&.V @.Y <.e j A [.: @ }.|.S     ",
"  . > } d t H V $.!.(.1.1._.(.~.%.*.U G t f 2.3 3.4.# 5.6.0 S   ",
"  + , | e u I W %.~._.1.1.1.(.~.%.*.U G t 7.=.} 5 m 8.8 9.0.S   ",
"  @ ' 1 f v I W $.~.(._.1._.(.!.$.W a.G t f b.} 5 m 8.c.d.e.S   ",
"  # ' 1 g u H X &.).:.(.(.(.~.).&.V @.Y <.e f.g.h.i.] 8 j.k.S   ",
"  $ ) 2 h w G U *.$.).~.~.!.).&.W U l.v x d m.n.[.o.$ Q p.q.S   ",
"  % ! 3 i x J I X *.&.%.%.$.&.W {.I Y w 7.r.| s.a { % t.R E S   ",
"  + ~ 4 j f w Y @.{.V *.*.W V U I G u x u.j g.v.> w.^.x.y.z.S   ",
"  & { 5 k y K t Y H @.U U a.@.l.Y u x e =.2 [ A.B.P C.D.+.S S   ",
"  * ] 6 l z L K w v Y G G G Y v w x e c 1 n.B > E...F.,.G.S S   ",
"  = ^ 7 ' A M Z f x <.t t t <.x 7.u.=.1 A ;.6 H.# _ I.J.K.S S   ",
"    / # m B A 1 =.F e f 7.f e d r.j 2 n.;.! B.L.M.}.N.O.S S     ",
"    ( 8 n ~ N 4 -.1 j 2.=.b.f.m.| g.[ B 6 B.n P.Q.R.S.T.S S     ",
"      9 o n O ` ;.[ A 3 } } g.n.s.v.A.> H.L.P.5.D.|.U.S S       ",
"      0 * C P  .~ a [.3.5 5 h.[.a > B.E.# M.Q.D.y.q.S S S       ",
"        p D Q ..>.].: 4.m m i.o.{ w.P .._ }.R.|.q.S S S         ",
"          E R . 8 ^.@ # 8.8.] $ % ^.C.F.I.N.S.U.S S S           ",
"            S +.,./.}.5.8 c.8 Q t.x.D.,.J.O.T.S S S             ",
"              S '.= |.6.9.d.j.p.R y.+.G.K.S S S S               ",
"                  S S 0 0.e.k.q.E z.S S S S S                   ",
"                      S S S S S S S S S S                       ",
"                                                                "};
