/* XPM */
static char * red_ball_xpm[] = {
"32 32 143 2",
"  	c None",
". 	c #88080E",
"+ 	c #9E0910",
"@ 	c #A80A11",
"# 	c #AB0A11",
"$ 	c #A60A11",
"% 	c #91080F",
"& 	c #7F070D",
"* 	c #62060A",
"= 	c #A10910",
"- 	c #B90B13",
"; 	c #C70C14",
"> 	c #CF0C15",
", 	c #D40C15",
"' 	c #D20C15",
") 	c #CD0C15",
"! 	c #C60B14",
"~ 	c #BB0B13",
"{ 	c #AE0A12",
"] 	c #9D0910",
"^ 	c #87080E",
"/ 	c #69060B",
"( 	c #99090F",
"_ 	c #BE0B13",
": 	c #D30C15",
"< 	c #E00D17",
"[ 	c #E90D18",
"} 	c #EF0E18",
"| 	c #F10E18",
"1 	c #EE0E18",
"2 	c #E10D17",
"3 	c #D80C16",
"4 	c #CC0C15",
"5 	c #BD0B13",
"6 	c #96090F",
"7 	c #7A070C",
"8 	c #500508",
"9 	c #AC0A11",
"0 	c #E30D17",
"a 	c #FB0F19",
"b 	c #FF0F1A",
"c 	c #FF0F1B",
"d 	c #FE0F1A",
"e 	c #F70E19",
"f 	c #ED0E18",
"g 	c #E20D17",
"h 	c #C40B14",
"i 	c #B10A12",
"j 	c #9B0910",
"k 	c #590509",
"l 	c #EB0E18",
"m 	c #FC0F19",
"n 	c #FF101C",
"o 	c #FF101B",
"p 	c #F30E19",
"q 	c #E60D17",
"r 	c #D70C16",
"s 	c #9A0910",
"t 	c #7D070D",
"u 	c #550509",
"v 	c #FF111D",
"w 	c #FF111E",
"x 	c #FF101D",
"y 	c #F40E19",
"z 	c #D50C16",
"A 	c #C20B14",
"B 	c #AD0A11",
"C 	c #93080F",
"D 	c #74070C",
"E 	c #4B0408",
"F 	c #FF121F",
"G 	c #A30911",
"H 	c #66060A",
"I 	c #FF1220",
"J 	c #FA0E19",
"K 	c #D90D16",
"L 	c #C50B14",
"M 	c #AF0A12",
"N 	c #78070C",
"O 	c #510508",
"P 	c #FF1320",
"Q 	c #FF1321",
"R 	c #FF111F",
"S 	c #F20E18",
"T 	c #B80B13",
"U 	c #A00910",
"V 	c #84080D",
"W 	c #F60E19",
"X 	c #A70A11",
"Y 	c #8D080E",
"Z 	c #6E060B",
"` 	c #F90E19",
" .	c #75070C",
"..	c #EA0E18",
"+.	c #79070C",
"@.	c #570509",
"#.	c #EA0D18",
"$.	c #97090F",
"%.	c #7B070C",
"&.	c #5A0509",
"*.	c #F80E19",
"=.	c #E80D17",
"-.	c #D60C16",
";.	c #C30B14",
">.	c #5B0509",
",.	c #E40D17",
"'.	c #C00B13",
").	c #93090F",
"!.	c #FD0F1A",
"~.	c #DF0D17",
"{.	c #CE0C15",
"].	c #8F080E",
"^.	c #C80C14",
"/.	c #B50A12",
"(.	c #89080E",
"_.	c #4F0508",
":.	c #FB0E19",
"<.	c #D10C15",
"[.	c #98090F",
"}.	c #81070D",
"|.	c #E50D17",
"1.	c #B60B12",
"2.	c #A40911",
"3.	c #77070C",
"4.	c #5C0509",
"5.	c #DA0D16",
"6.	c #BC0B13",
"7.	c #83080D",
"8.	c #6C060B",
"9.	c #BF0B13",
"0.	c #B00A12",
"a.	c #9F0910",
"b.	c #8C080E",
"c.	c #76070C",
"d.	c #5E050A",
"e.	c #B20A12",
"f.	c #A20910",
"g.	c #67060A",
"h.	c #4E0408",
"i.	c #92080F",
"j.	c #6D060B",
"k.	c #560509",
"l.	c #6F060B",
"                                                                ",
"                      . + @ # # $ + % & *                       ",
"                  = - ; > , , ' ) ! ~ { ] ^ /                   ",
"              ( _ : < [ } | | 1 [ 2 3 4 5 # 6 7 8               ",
"            9 ) 0 | a b c c c b d e f g , h i j & k             ",
"          i , l m c n n n n n n o c d p q r ! i s t u           ",
"        9 , 1 b o n v w w w w v x n c b y q z A B C D E         ",
"      ( ) l b n x w w F F F F w w v n c b | 2 > ~ G . H E       ",
"      _ 0 m o x w F F I I I I F F w v n c J l K L M 6 N O       ",
"    = : | c n w F I I P Q Q I I F R w x o b S < ) T U V * E     ",
"    - < a n v w F I Q Q Q Q Q I I F w v n b W q : _ X Y Z E     ",
"  . ; [ b n w F I P Q Q Q Q Q Q I F w v n c ` [ r A 9 C  .8 E   ",
"  + > } c n w F I Q Q Q Q Q Q Q I F w v n c J ..3 h { 6 +.@.E   ",
"  @ , | c n w F I Q Q Q Q Q Q P I F w v n c J #.3 L M $.%.&.E   ",
"  # , | c n w F I I Q Q Q Q Q I I F w v n b *.=.-.;.{ 6 %.>.E   ",
"  # ' 1 b n v w F I I Q Q P I I F w w x o b y ,.: '.# ).+.k E   ",
"  $ ) [ d o x w F F I I I I I F R w v n c !.} ~.{.~ $ ].D u E   ",
"  + ! 2 e c n v w R F F F F F w w v n o b W =.K ^./.U (.Z _.E   ",
"  % ~ 3 f d c n v w w w w w w w v n o b :.1 < <.'.B [.}.H E E   ",
"  & { 4 g p b c n x v v v v v x n o b m | |.r ; 1.2.].3.4.E E   ",
"  * ] 5 , q y b c o n n n n n o c b :.| q 5.4 6.# ( 7.8.8 E E   ",
"    ^ # h r q | J b b c c c b b !.W 1 |.5.) 9.0.a.b.c.d.E E     ",
"    / 6 i ! z 2 l S W ` J J *.y } =.< r 4 9.e.f.% t g.h.E E     ",
"      7 j i A > K < q [ ..#.=.,.~.K <.; 6.0.f.i.}.j.k.E E       ",
"      8 & s B ~ L ) : r 3 3 -.: {.^.'.1.# a.% }.l.&.E E E       ",
"        k t C G M T _ A h L ;.'.~ /.B 2.( b.t j.&.E E E         ",
"          u D . 6 U X 9 { M { # $ U [.].7.c.g.k.E E E           ",
"            E H N V Y C 6 $.6 ).].(.}.3.8.d.h.E E E             ",
"              E O * Z  .+.%.%.+.D Z H 4.8 E E E E               ",
"                  E E 8 @.&.>.k u _.E E E E E                   ",
"                      E E E E E E E E E E                       ",
"                                                                "};
