/* XPM */
static char * yellow_ball_xpm[] = {
"32 32 157 2",
"  	c None",
". 	c #818308",
"+ 	c #96980A",
"@ 	c #9FA10A",
"# 	c #A3A50A",
"$ 	c #A2A40A",
"% 	c #9EA00A",
"& 	c #8A8C09",
"* 	c #787A08",
"= 	c #5D5E06",
"- 	c #999B0A",
"; 	c #B0B20B",
"> 	c #BDC00C",
", 	c #C5C80D",
"' 	c #C9CC0D",
") 	c #CACC0D",
"! 	c #C7CA0D",
"~ 	c #C3C60D",
"{ 	c #BCBE0C",
"] 	c #B2B40B",
"^ 	c #A5A70B",
"/ 	c #95970A",
"( 	c #808208",
"_ 	c #636506",
": 	c #919309",
"< 	c #B4B70C",
"[ 	c #C8CB0D",
"} 	c #D5D80E",
"| 	c #DDE10E",
"1 	c #E3E60F",
"2 	c #E5E80F",
"3 	c #E4E80F",
"4 	c #E2E50F",
"5 	c #DDE00E",
"6 	c #D6D90E",
"7 	c #CDD00D",
"8 	c #C1C40C",
"9 	c #B3B60C",
"0 	c #8E9009",
"a 	c #747607",
"b 	c #4C4D05",
"c 	c #D7DA0E",
"d 	c #EFF20F",
"e 	c #F5F810",
"f 	c #F9FC10",
"g 	c #FAFE10",
"h 	c #F9FD10",
"i 	c #F6F910",
"j 	c #F1F40F",
"k 	c #EAED0F",
"l 	c #E1E40E",
"m 	c #BABD0C",
"n 	c #A8AB0B",
"o 	c #939509",
"p 	c #797A08",
"q 	c #545605",
"r 	c #A8AA0B",
"s 	c #DFE20E",
"t 	c #FFFF11",
"u 	c #F1F510",
"v 	c #E7EA0F",
"w 	c #DADD0E",
"x 	c #CCCF0D",
"y 	c #BBBE0C",
"z 	c #929409",
"A 	c #767808",
"B 	c #515205",
"C 	c #F4F710",
"D 	c #FFFF12",
"E 	c #FEFF10",
"F 	c #E8EB0F",
"G 	c #CACD0D",
"H 	c #B8BB0C",
"I 	c #A4A60B",
"J 	c #8C8E09",
"K 	c #6E7007",
"L 	c #474805",
"M 	c #FFFF13",
"N 	c #F2F610",
"O 	c #C5C70D",
"P 	c #B1B40B",
"Q 	c #9B9D0A",
"R 	c #616206",
"S 	c #FBFE10",
"T 	c #EDF10F",
"U 	c #CED10D",
"V 	c #A6A90B",
"W 	c #727307",
"X 	c #4D4E05",
"Y 	c #FFFF14",
"Z 	c #FFFF10",
"` 	c #AFB10B",
" .	c #989A0A",
"..	c #7D7F08",
"+.	c #F8FC10",
"@.	c #B5B70C",
"#.	c #868709",
"$.	c #686907",
"%.	c #EDF00F",
"&.	c #CCCE0D",
"*.	c #8B8D09",
"=.	c #6F7107",
"-.	c #FBFF10",
";.	c #EEF10F",
">.	c #DEE10E",
",.	c #A6A80B",
"'.	c #737507",
").	c #535405",
"!.	c #BBBD0C",
"~.	c #8F9109",
"{.	c #757708",
"].	c #565706",
"^.	c #EBEE0F",
"/.	c #DCDF0E",
"(.	c #CBCE0D",
"_.	c #B9BC0C",
":.	c #757608",
"<.	c #565806",
"[.	c #E7EB0F",
"}.	c #D9DC0E",
"|.	c #B6B90C",
"1.	c #737407",
"2.	c #555605",
"3.	c #FCFF10",
"4.	c #F0F30F",
"5.	c #D4D70E",
"6.	c #888A09",
"7.	c #6F7007",
"8.	c #CED00D",
"9.	c #ACAE0B",
"0.	c #828408",
"a.	c #696A07",
"b.	c #4B4C05",
"c.	c #C6C90D",
"d.	c #B6B80C",
"e.	c #909209",
"f.	c #7A7C08",
"g.	c #ADAF0B",
"h.	c #878909",
"i.	c #717307",
"j.	c #575906",
"k.	c #CFD10D",
"l.	c #B3B50B",
"m.	c #666807",
"n.	c #A7A90B",
"o.	c #97990A",
"p.	c #858709",
"q.	c #707207",
"r.	c #595A06",
"s.	c #A9AB0B",
"t.	c #9A9C0A",
"u.	c #898B09",
"v.	c #777908",
"w.	c #626306",
"x.	c #4A4B05",
"y.	c #676907",
"z.	c #525305",
"                                                                ",
"                      . + @ # $ % + & * =                       ",
"                  - ; > , ' ) ! ~ { ] ^ / ( _                   ",
"              : < [ } | 1 2 3 4 5 6 7 8 9 # 0 a b               ",
"            # ~ c 2 d e f g h i j k l 6 ' m n o p q             ",
"          r ) s d g t t t t t t t g u v w x y n z A B           ",
"        # ) 4 C t t D D D D D D t t E C F w G H I J K L         ",
"      : ~ s C t t D D M M M M D D D t E N 2 6 O P Q . R L       ",
"      < c d t t D M M M M M M M M D D t S T s U y V 0 W X       ",
"    - [ 2 g t D M M M Y Y Y M M M D D t Z C 2 } ~ `  ...= L     ",
"    ; } d t D D M M Y Y Y Y Y M M M D t t +.k w [ @.@ #.$.L     ",
"  . > | e t D M M Y Y Y Y Y Y Y M M D D t S %.5 &.H # *.=.b L   ",
"  + , 1 f t D M M Y Y Y Y Y Y Y M M D D t -.;.>.7 m ,.0 '.).L   ",
"  @ ' 2 g t D M M Y Y Y Y Y Y Y M M D D t S %.>.7 !.,.~.{.].L   ",
"  # ) 3 h t D M M M Y Y Y Y Y M M M D t t f ^./.(._.^ 0 :.<.L   ",
"  $ ! 4 i t D D M M M Y Y Y M M M D D t t e [.}.[ |.$ J 1.2.L   ",
"  % ~ 5 j t t D M M M M M M M M D D t t 3.4.1 5.~ ] % 6.7.B L   ",
"  + { 6 k g t D D D M M M M M D D D t Z i k /.8.> 9. .0.a.b.L   ",
"  & ] 7 l u E t D D D D D D D D t t t +.;.4 } c.d.I e.f.R L L   ",
"  * ^ 8 6 v C E t t t D D D t t t Z +.d 2 }.x > g.Q h.i.j.L L   ",
"  = / 9 ' w F N S Z t t t t t t 3.i ;.2 w k.8 l.# : ..m.b L L   ",
"    ( # m x w 2 T C +.S -.S f e 4.k 4 }.k.~ d.n.o.p.q.r.L L     ",
"    _ 0 n y G 6 s 2 k %.;.%.^.[.1 /.} x 8 d.s.t.u.v.w.x.L L     ",
"      a o n H O U } w 5 >.>./.}.5.8.c.> l.n.t.*.f.y.z.L L       ",
"      b p z I P y ~ [ &.7 7 (.[ ~ > d.g.# o.u.f.a.2.L L L       ",
"        q A J Q V ` @.H m !._.|.] 9.I Q : p.v.y.2.L L L         ",
"          B K . 0  .@ # ,.,.^ $ %  .e.h...q.w.z.L L L           ",
"            L R W ..#.*.0 ~.0 J 6.0.f.i.m.r.x.L L L             ",
"              L X = $.=.'.{.:.1.7.a.R j.b L L L L               ",
"                  L L b ).].<.2.B b.L L L L L                   ",
"                      L L L L L L L L L L                       ",
"                                                                "};
